<svg width="28" height="28" viewBox="0 0 28 28" fill="none" xmlns="http://www.w3.org/2000/svg">
<g id="mage:filter">
<path id="Vector" d="M24.7916 14H10.3775M5.28965 14H3.20831M5.28965 14C5.28965 14.6745 5.5576 15.3214 6.03457 15.7984C6.51154 16.2753 7.15845 16.5433 7.83298 16.5433C8.50751 16.5433 9.15442 16.2753 9.63139 15.7984C10.1084 15.3214 10.3763 14.6745 10.3763 14C10.3763 13.3254 10.1084 12.6785 9.63139 12.2016C9.15442 11.7246 8.50751 11.4566 7.83298 11.4566C7.15845 11.4566 6.51154 11.7246 6.03457 12.2016C5.5576 12.6785 5.28965 13.3254 5.28965 14ZM24.7916 6.2918H18.0856M18.0856 6.2918C18.0856 5.61711 17.817 4.96947 17.34 4.4924C16.8629 4.01532 16.2158 3.7473 15.5411 3.7473C14.8666 3.7473 14.2197 4.01642 13.7427 4.49339C13.2658 4.97036 12.9978 5.61726 12.9978 6.2918M18.0856 6.2918C18.0856 6.96649 17.817 7.61296 17.34 8.09004C16.8629 8.56711 16.2158 8.83513 15.5411 8.83513C14.8666 8.83513 14.2197 8.56717 13.7427 8.09021C13.2658 7.61324 12.9978 6.96633 12.9978 6.2918M12.9978 6.2918H3.20831M24.7916 21.7081H21.1691M16.0813 21.7081H3.20831M16.0813 21.7081C16.0813 22.3827 16.3493 23.0296 16.8262 23.5065C17.3032 23.9835 17.9501 24.2515 18.6246 24.2515C18.9586 24.2515 19.2894 24.1857 19.5979 24.0579C19.9065 23.9301 20.1869 23.7427 20.4231 23.5065C20.6592 23.2704 20.8466 22.99 20.9744 22.6814C21.1022 22.3729 21.168 22.0421 21.168 21.7081C21.168 21.3741 21.1022 21.0434 20.9744 20.7348C20.8466 20.4263 20.6592 20.1459 20.4231 19.9097C20.1869 19.6736 19.9065 19.4862 19.5979 19.3584C19.2894 19.2306 18.9586 19.1648 18.6246 19.1648C17.9501 19.1648 17.3032 19.4328 16.8262 19.9097C16.3493 20.3867 16.0813 21.0336 16.0813 21.7081Z" stroke="white" stroke-width="1.5" stroke-miterlimit="10" stroke-linecap="round"/>
</g>
</svg>
