<svg width="60" height="60" viewBox="0 0 60 60" fill="none" xmlns="http://www.w3.org/2000/svg">
<g id="&#230;&#148;&#182;&#232;&#151;&#143;icon" clip-path="url(#clip0_0_109)">
<path id="Vector" d="M41.0748 6.87499C41.1718 6.87499 41.2675 6.8524 41.3543 6.80901C41.4411 6.76562 41.5166 6.70261 41.5748 6.62499C41.6171 6.53506 41.6391 6.43689 41.6391 6.33749C41.6391 6.23809 41.6171 6.13992 41.5748 6.04999L39.9998 0.849991C39.9128 0.591265 39.7436 0.368118 39.5178 0.214634C39.2921 0.061149 39.0224 -0.0142366 38.7498 -9.03755e-06H21.2498C20.9772 -0.0142366 20.7075 0.061149 20.4818 0.214634C20.2561 0.368118 20.0868 0.591265 19.9998 0.849991L18.2498 6.04999C18.2075 6.13992 18.1855 6.23809 18.1855 6.33749C18.1855 6.43689 18.2075 6.53506 18.2498 6.62499C18.308 6.70261 18.3835 6.76562 18.4703 6.80901C18.5571 6.8524 18.6528 6.87499 18.7498 6.87499H41.0748ZM18.9248 53.125C18.8278 53.125 18.7321 53.1476 18.6453 53.191C18.5585 53.2344 18.483 53.2974 18.4248 53.375C18.3825 53.4649 18.3605 53.5631 18.3605 53.6625C18.3605 53.7619 18.3825 53.8601 18.4248 53.95L19.9998 59.15C20.0868 59.4087 20.2561 59.6319 20.4818 59.7854C20.7075 59.9388 20.9772 60.0142 21.2498 60H38.7498C39.0097 59.9981 39.2626 59.9152 39.4732 59.7628C39.6838 59.6105 39.8416 59.3963 39.9248 59.15L41.6748 53.95C41.7171 53.8601 41.7391 53.7619 41.7391 53.6625C41.7391 53.5631 41.7171 53.4649 41.6748 53.375C41.6166 53.2974 41.5411 53.2344 41.4543 53.191C41.3675 53.1476 41.2718 53.125 41.1748 53.125H18.9248ZM43.7498 9.99999H16.2498C14.5922 9.99999 13.0025 10.6585 11.8304 11.8306C10.6583 13.0027 9.99981 14.5924 9.99981 16.25V43.75C9.97032 45.2122 10.4545 46.6384 11.3681 47.7804C12.2817 48.9223 13.5668 49.7078 14.9998 50L43.7498 50.125C44.5812 50.1252 45.4043 49.9595 46.1708 49.6376C46.9374 49.3157 47.632 48.8441 48.214 48.2504C48.796 47.6568 49.2538 46.9529 49.5604 46.1802C49.8671 45.4074 50.0164 44.5812 49.9998 43.75V16.25C49.9998 14.5924 49.3413 13.0027 48.1692 11.8306C46.9971 10.6585 45.4074 9.99999 43.7498 9.99999ZM39.9998 31.7L29.9998 42.025C29.8803 42.1459 29.7196 42.2174 29.5498 42.225C29.4647 42.2271 29.3801 42.2102 29.3023 42.1756C29.2245 42.141 29.1553 42.0896 29.0998 42.025L19.0998 31.7C18.4816 31.1438 17.9831 30.4676 17.6348 29.7126C17.2864 28.9575 17.0954 28.1394 17.0735 27.3081C17.0516 26.4769 17.1991 25.6499 17.5072 24.8775C17.8152 24.1051 18.2773 23.4035 18.8653 22.8155C19.4533 22.2275 20.1549 21.7654 20.9273 21.4574C21.6997 21.1493 22.5267 21.0017 23.358 21.0237C24.1892 21.0456 25.0073 21.2366 25.7624 21.585C26.5174 21.9333 27.1936 22.4318 27.7498 23.05L28.9998 24.3C29.1195 24.4089 29.2755 24.4693 29.4373 24.4693C29.5991 24.4693 29.7551 24.4089 29.8748 24.3L31.1248 23.05C31.6928 22.4673 32.37 22.0021 33.1177 21.6811C33.8654 21.36 34.6691 21.1894 35.4828 21.179C36.2964 21.1685 37.1042 21.3184 37.8599 21.6202C38.6157 21.9219 39.3046 22.3695 39.8873 22.9375C40.47 23.5055 40.9352 24.1826 41.2562 24.9304C41.5773 25.6781 41.7479 26.4818 41.7583 27.2954C41.7688 28.1091 41.6189 28.9169 41.3171 29.6726C41.0154 30.4283 40.5678 31.1173 39.9998 31.7Z" fill="white"/>
</g>
<defs>
<clipPath id="clip0_0_109">
<rect width="60" height="60" fill="white"/>
</clipPath>
</defs>
</svg>
