<svg width="24" height="24" viewBox="0 0 24 24" fill="none" xmlns="http://www.w3.org/2000/svg">
<g clip-path="url(#clip0_0_93)">
<path d="M16.43 2.75019C16.4688 2.75019 16.5071 2.74116 16.5418 2.7238C16.5765 2.70644 16.6067 2.68124 16.63 2.65019C16.647 2.61422 16.6557 2.57495 16.6557 2.53519C16.6557 2.49543 16.647 2.45616 16.63 2.42019L16 0.340192C15.9652 0.236701 15.8975 0.147443 15.8072 0.0860487C15.717 0.0246549 15.6091 -0.00549932 15.5 0.000191698H8.50002C8.39099 -0.00549932 8.28309 0.0246549 8.1928 0.0860487C8.10252 0.147443 8.03481 0.236701 8.00002 0.340192L7.30002 2.42019C7.28309 2.45616 7.27431 2.49543 7.27431 2.53519C7.27431 2.57495 7.28309 2.61422 7.30002 2.65019C7.32331 2.68124 7.3535 2.70644 7.38822 2.7238C7.42293 2.74116 7.46121 2.75019 7.50002 2.75019H16.43ZM7.57002 21.2502C7.53121 21.2502 7.49293 21.2592 7.45822 21.2766C7.4235 21.2939 7.39331 21.3191 7.37002 21.3502C7.35309 21.3862 7.3443 21.4254 7.3443 21.4652C7.3443 21.505 7.35309 21.5442 7.37002 21.5802L8.00002 23.6602C8.03481 23.7637 8.10252 23.8529 8.1928 23.9143C8.28309 23.9757 8.39099 24.0059 8.50002 24.0002H15.5C15.604 23.9994 15.7051 23.9663 15.7894 23.9053C15.8736 23.8444 15.9368 23.7587 15.97 23.6602L16.67 21.5802C16.687 21.5442 16.6957 21.505 16.6957 21.4652C16.6957 21.4254 16.687 21.3862 16.67 21.3502C16.6467 21.3191 16.6165 21.2939 16.5818 21.2766C16.5471 21.2592 16.5088 21.2502 16.47 21.2502H7.57002ZM17.5 4.00019H6.50002C5.83698 4.00019 5.20109 4.26358 4.73225 4.73242C4.26341 5.20127 4.00002 5.83715 4.00002 6.50019V17.5002C3.98823 18.0851 4.1819 18.6555 4.54734 19.1123C4.91278 19.5691 5.42683 19.8833 6.00002 20.0002L17.5 20.0502C17.8326 20.0503 18.1618 19.984 18.4684 19.8552C18.775 19.7265 19.0529 19.5378 19.2857 19.3004C19.5185 19.0629 19.7016 18.7814 19.8243 18.4723C19.9469 18.1632 20.0067 17.8327 20 17.5002V6.50019C20 5.83715 19.7366 5.20127 19.2678 4.73242C18.7989 4.26358 18.1631 4.00019 17.5 4.00019ZM16 12.6802L12 16.8102C11.9522 16.8586 11.888 16.8871 11.82 16.8902C11.786 16.891 11.7522 16.8843 11.721 16.8704C11.6899 16.8566 11.6622 16.836 11.64 16.8102L7.64002 12.6802C7.39274 12.4577 7.19336 12.1872 7.05401 11.8852C6.91466 11.5832 6.83827 11.256 6.82949 10.9235C6.82072 10.5909 6.87974 10.2601 7.00297 9.95118C7.12619 9.64223 7.31103 9.3616 7.54623 9.1264C7.78143 8.8912 8.06206 8.70636 8.37101 8.58314C8.67996 8.45991 9.01077 8.40089 9.34328 8.40967C9.67578 8.41844 10.003 8.49483 10.305 8.63418C10.6071 8.77353 10.8776 8.97291 11.1 9.22019L11.6 9.72019C11.6479 9.76376 11.7103 9.7879 11.775 9.7879C11.8397 9.7879 11.9021 9.76376 11.95 9.72019L12.45 9.22019C12.6772 8.9871 12.9481 8.80103 13.2472 8.67262C13.5463 8.5442 13.8677 8.47596 14.1932 8.47178C14.5187 8.4676 14.8418 8.52757 15.1441 8.64826C15.4464 8.76895 15.7219 8.948 15.955 9.17519C16.1881 9.40238 16.3742 9.67325 16.5026 9.97235C16.631 10.2714 16.6993 10.5929 16.7034 10.9184C16.7076 11.2438 16.6476 11.5669 16.5269 11.8692C16.4063 12.1715 16.2272 12.4471 16 12.6802Z" fill="white"/>
</g>
<defs>
<clipPath id="clip0_0_93">
<rect width="24" height="24" fill="white"/>
</clipPath>
</defs>
</svg>
