<svg width="24" height="24" viewBox="0 0 24 24" fill="none" xmlns="http://www.w3.org/2000/svg">
<g clip-path="url(#clip0_44_259)">
<path fill-rule="evenodd" clip-rule="evenodd" d="M12 2.25C6.61522 2.25 2.25 6.61522 2.25 12C2.25 17.3848 6.61522 21.75 12 21.75C17.3848 21.75 21.75 17.3848 21.75 12C21.7443 6.61758 17.3824 2.25568 12 2.25ZM12.75 20.2153V14.25H15C15.4142 14.25 15.75 13.9142 15.75 13.5C15.75 13.0858 15.4142 12.75 15 12.75H12.75V10.5C12.75 9.67157 13.4216 9 14.25 9H15.75C16.1642 9 16.5 8.66421 16.5 8.25C16.5 7.83579 16.1642 7.5 15.75 7.5H14.25C12.5931 7.5 11.25 8.84315 11.25 10.5V12.75H9C8.58579 12.75 8.25 13.0858 8.25 13.5C8.25 13.9142 8.58579 14.25 9 14.25H11.25V20.2153C6.85788 19.8144 3.55787 16.0299 3.75854 11.6241C3.95922 7.21827 7.58962 3.74947 12 3.74947C16.4104 3.74947 20.0408 7.21827 20.2415 11.6241C20.4421 16.0299 17.1421 19.8144 12.75 20.2153Z" fill="white"/>
</g>
<defs>
<clipPath id="clip0_44_259">
<rect width="24" height="24" fill="white"/>
</clipPath>
</defs>
</svg>
