<svg width="24" height="24" viewBox="0 0 24 24" fill="none" xmlns="http://www.w3.org/2000/svg">
<g clip-path="url(#clip0_44_257)">
<path fill-rule="evenodd" clip-rule="evenodd" d="M12 7.5C9.51472 7.5 7.5 9.51472 7.5 12C7.5 14.4853 9.51472 16.5 12 16.5C14.4853 16.5 16.5 14.4853 16.5 12C16.4974 9.51579 14.4842 7.50258 12 7.5ZM12 15C10.3431 15 9 13.6569 9 12C9 10.3431 10.3431 9 12 9C13.6569 9 15 10.3431 15 12C15 13.6569 13.6569 15 12 15ZM16.5 2.25H7.5C4.60179 2.2531 2.2531 4.60179 2.25 7.5V16.5C2.2531 19.3982 4.60179 21.7469 7.5 21.75H16.5C19.3982 21.7469 21.7469 19.3982 21.75 16.5V7.5C21.7469 4.60179 19.3982 2.2531 16.5 2.25ZM20.25 16.5C20.25 18.5711 18.5711 20.25 16.5 20.25H7.5C5.42893 20.25 3.75 18.5711 3.75 16.5V7.5C3.75 5.42893 5.42893 3.75 7.5 3.75H16.5C18.5711 3.75 20.25 5.42893 20.25 7.5V16.5ZM18 7.125C18 7.74632 17.4963 8.25 16.875 8.25C16.2537 8.25 15.75 7.74632 15.75 7.125C15.75 6.50368 16.2537 6 16.875 6C17.4963 6 18 6.50368 18 7.125Z" fill="white"/>
</g>
<defs>
<clipPath id="clip0_44_257">
<rect width="24" height="24" fill="white"/>
</clipPath>
</defs>
</svg>
