<svg width="80" height="80" viewBox="0 0 80 80" fill="none" xmlns="http://www.w3.org/2000/svg">
<g id="&#229;&#147;&#129;&#231;&#137;&#140;icon">
<path id="Vector" d="M53.3333 73.3334L51.4166 65.6668C49.4166 64.2223 47.8478 62.4312 46.71 60.2934C45.5722 58.1556 45.0022 55.8356 45 53.3334C44.9978 50.8312 45.5678 48.5123 46.71 46.3768C47.8522 44.2412 49.4211 42.449 51.4166 41.0001L53.3333 33.3334H66.6666L68.5833 41.0001C70.5833 42.4445 72.1533 44.2368 73.2933 46.3768C74.4333 48.5168 75.0022 50.8356 75 53.3334C74.9978 55.8312 74.4278 58.1512 73.29 60.2934C72.1522 62.4356 70.5833 64.2268 68.5833 65.6668L66.6666 73.3334H53.3333ZM60 61.6668C62.3333 61.6668 64.3055 60.8612 65.9166 59.2501C67.5278 57.639 68.3333 55.6668 68.3333 53.3334C68.3333 51.0001 67.5278 49.0279 65.9166 47.4168C64.3055 45.8056 62.3333 45.0001 60 45.0001C57.6666 45.0001 55.6944 45.8056 54.0833 47.4168C52.4722 49.0279 51.6666 51.0001 51.6666 53.3334C51.6666 55.6668 52.4722 57.639 54.0833 59.2501C55.6944 60.8612 57.6666 61.6668 60 61.6668ZM40 73.3334C32.2778 71.389 25.9022 66.9579 20.8733 60.0401C15.8444 53.1223 13.3311 45.4423 13.3333 37.0001V16.6667L40 6.66675L66.6666 16.6667V26.6667H48.1666L45.5 37.2501C43.2222 39.3056 41.4578 41.7223 40.2066 44.5001C38.9555 47.2779 38.3311 50.2223 38.3333 53.3334C38.3333 56.7779 39.0978 60.0145 40.6266 63.0434C42.1555 66.0723 44.28 68.6134 47 70.6668C45.8889 71.2779 44.75 71.8056 43.5833 72.2501C42.4166 72.6945 41.2222 73.0556 40 73.3334Z" fill="white"/>
</g>
</svg>
