<svg width="20" height="21" viewBox="0 0 20 21" fill="none" xmlns="http://www.w3.org/2000/svg">
<path id="Vector - 0" fill-rule="evenodd" clip-rule="evenodd" d="M18.7248 4.70106L10.4727 0.185839C10.0245 -0.0618057 9.4805 -0.0618057 9.03231 0.185839L0.7802 4.70293C0.300215 4.96555 0.001242 5.46863 0 6.01577V14.9843C0.001242 15.5314 0.300215 16.0345 0.7802 16.2971L9.03231 20.8142C9.4805 21.0619 10.0245 21.0619 10.4727 20.8142L18.7248 16.2971C19.2048 16.0345 19.5037 15.5314 19.505 14.9843V6.0167C19.5048 5.46856 19.2057 4.96416 18.7248 4.70106ZM9.75249 1.49867L17.2863 5.62473L14.4946 7.15325L6.95991 3.02719L9.75249 1.49867ZM9.75249 9.75078L2.21869 5.62473L5.39763 3.88428L12.9314 8.01034L9.75249 9.75078ZM1.50038 6.93757L9.0023 11.043V19.0879L1.50038 14.9852V6.93757ZM18.0046 14.9815L10.5027 19.0879V11.0467L13.5035 9.40476V12.7516C13.5035 13.1659 13.8393 13.5017 14.2536 13.5017C14.668 13.5017 15.0038 13.1659 15.0038 12.7516V8.5833L18.0046 6.93757V14.9806V14.9815Z" fill="#121417"/>
</svg>
