<svg width="20" height="20" viewBox="0 0 20 20" fill="none" xmlns="http://www.w3.org/2000/svg">
<path fill-rule="evenodd" clip-rule="evenodd" d="M10 5.38462C7.45099 5.38462 5.38462 7.45099 5.38462 10C5.38462 12.549 7.45099 14.6154 10 14.6154C12.549 14.6154 14.6154 12.549 14.6154 10C14.6127 7.45209 12.5479 5.38727 10 5.38462ZM10 13.0769C8.30066 13.0769 6.92308 11.6993 6.92308 10C6.92308 8.30066 8.30066 6.92308 10 6.92308C11.6993 6.92308 13.0769 8.30066 13.0769 10C13.0769 11.6993 11.6993 13.0769 10 13.0769ZM14.6154 0H5.38462C2.41209 0.00317965 0.00317965 2.41209 0 5.38462V14.6154C0.00317965 17.5879 2.41209 19.9968 5.38462 20H14.6154C17.5879 19.9968 19.9968 17.5879 20 14.6154V5.38462C19.9968 2.41209 17.5879 0.00317965 14.6154 0ZM18.4615 14.6154C18.4615 16.7396 16.7396 18.4615 14.6154 18.4615H5.38462C3.26044 18.4615 1.53846 16.7396 1.53846 14.6154V5.38462C1.53846 3.26044 3.26044 1.53846 5.38462 1.53846H14.6154C16.7396 1.53846 18.4615 3.26044 18.4615 5.38462V14.6154ZM16.1538 5C16.1538 5.63725 15.6373 6.15385 15 6.15385C14.3627 6.15385 13.8462 5.63725 13.8462 5C13.8462 4.36275 14.3627 3.84615 15 3.84615C15.6373 3.84615 16.1538 4.36275 16.1538 5Z" fill="#5B84C5"/>
</svg>
