<svg width="142" height="247" viewBox="0 0 142 247" fill="none" xmlns="http://www.w3.org/2000/svg">
<rect x="1" y="1" width="140" height="245" rx="8" stroke="#121721"/>
<path d="M1 9C1 4.58172 4.58172 1 9 1H133C137.418 1 141 4.58172 141 9V50H1V9Z" fill="#243347"/>
<path d="M1 9C1 4.44365 4.69365 0.75 9.25 0.75H132.75C137.306 0.75 141 4.44365 141 9C141 4.71979 137.418 1.25 133 1.25H9C4.58172 1.25 1 4.71979 1 9ZM141 50.25H1V49.75H141V50.25ZM1 50V1V50ZM141 1V50V1Z" fill="#616161"/>
<path d="M54.56 21.536H63.44V23.072H54.56V21.536ZM48.584 34.832H69.488V36.368H48.584V34.832ZM50 15.752H57.128V17.264H50V15.752ZM56.552 15.752H56.84L57.176 15.68L58.352 16.28C57.904 17.432 57.328 18.504 56.624 19.496C55.936 20.488 55.16 21.4 54.296 22.232C53.432 23.064 52.52 23.808 51.56 24.464C50.616 25.104 49.672 25.648 48.728 26.096C48.6 25.904 48.432 25.672 48.224 25.4C48.016 25.128 47.816 24.912 47.624 24.752C48.504 24.384 49.392 23.904 50.288 23.312C51.184 22.72 52.032 22.048 52.832 21.296C53.648 20.544 54.376 19.728 55.016 18.848C55.656 17.968 56.168 17.048 56.552 16.088V15.752ZM60.608 14.888C61.216 16.248 62.008 17.544 62.984 18.776C63.976 20.008 65.088 21.104 66.32 22.064C67.568 23.024 68.888 23.768 70.28 24.296C70.136 24.424 69.984 24.576 69.824 24.752C69.68 24.912 69.536 25.088 69.392 25.28C69.264 25.456 69.144 25.624 69.032 25.784C67.624 25.144 66.288 24.304 65.024 23.264C63.776 22.224 62.64 21.032 61.616 19.688C60.608 18.344 59.768 16.912 59.096 15.392L60.608 14.888ZM49.352 19.16L50.336 18.152C50.768 18.392 51.2 18.672 51.632 18.992C52.08 19.296 52.488 19.608 52.856 19.928C53.24 20.248 53.544 20.552 53.768 20.84L52.784 21.944C52.432 21.528 51.928 21.056 51.272 20.528C50.616 20 49.976 19.544 49.352 19.16ZM65.408 15.032L66.8 16.016C66.176 16.592 65.48 17.176 64.712 17.768C63.96 18.36 63.264 18.872 62.624 19.304L61.52 18.44C61.936 18.136 62.384 17.792 62.864 17.408C63.344 17.008 63.808 16.6 64.256 16.184C64.704 15.768 65.088 15.384 65.408 15.032ZM68.12 17.864L69.464 18.824C68.824 19.416 68.104 20.016 67.304 20.624C66.52 21.232 65.8 21.744 65.144 22.16L64.04 21.296C64.472 20.992 64.936 20.648 65.432 20.264C65.944 19.864 66.432 19.456 66.896 19.04C67.376 18.624 67.784 18.232 68.12 17.864ZM54.104 26.552V29.696H63.824V26.552H54.104ZM52.352 25.04H65.672V31.184H52.352V25.04ZM53.744 31.568L55.376 31.136C55.712 31.648 56.024 32.224 56.312 32.864C56.6 33.488 56.808 34.032 56.936 34.496L55.208 35.024C55.096 34.56 54.904 34 54.632 33.344C54.36 32.688 54.064 32.096 53.744 31.568ZM62.672 31.064L64.4 31.52C64.08 32.16 63.752 32.792 63.416 33.416C63.08 34.04 62.76 34.584 62.456 35.048L60.896 34.616C61.104 34.296 61.32 33.928 61.544 33.512C61.768 33.096 61.976 32.672 62.168 32.24C62.376 31.792 62.544 31.4 62.672 31.064ZM76.472 16.304H83.264V18.128H76.472V16.304ZM82.352 16.304H84.176C84.176 17.008 84.208 17.84 84.272 18.8C84.336 19.76 84.472 20.792 84.68 21.896C84.888 22.984 85.208 24.12 85.64 25.304C86.072 26.488 86.656 27.672 87.392 28.856C88.128 30.024 89.048 31.16 90.152 32.264C91.272 33.368 92.624 34.384 94.208 35.312C94.08 35.424 93.912 35.568 93.704 35.744C93.512 35.936 93.328 36.128 93.152 36.32C92.992 36.528 92.856 36.704 92.744 36.848C91.144 35.872 89.768 34.8 88.616 33.632C87.48 32.448 86.528 31.216 85.76 29.936C85.008 28.656 84.4 27.376 83.936 26.096C83.488 24.8 83.144 23.552 82.904 22.352C82.68 21.136 82.528 20.008 82.448 18.968C82.384 17.928 82.352 17.04 82.352 16.304ZM81.656 21.008L83.696 21.368C83.12 23.8 82.368 25.992 81.44 27.944C80.528 29.896 79.416 31.616 78.104 33.104C76.808 34.576 75.272 35.832 73.496 36.872C73.4 36.744 73.248 36.592 73.04 36.416C72.848 36.24 72.64 36.056 72.416 35.864C72.208 35.688 72.024 35.544 71.864 35.432C74.536 34.024 76.656 32.12 78.224 29.72C79.792 27.304 80.936 24.4 81.656 21.008Z" fill="white"/>
<path d="M1 50H141V99H1V50Z" fill="#243347"/>
<path d="M1 50V50.25H141V50V49.75H1V50ZM141 99V98.75H1V99V99.25H141V99Z" fill="#616161"/>
<path d="M54.56 70.536H63.44V72.072H54.56V70.536ZM48.584 83.832H69.488V85.368H48.584V83.832ZM50 64.752H57.128V66.264H50V64.752ZM56.552 64.752H56.84L57.176 64.68L58.352 65.28C57.904 66.432 57.328 67.504 56.624 68.496C55.936 69.488 55.16 70.4 54.296 71.232C53.432 72.064 52.52 72.808 51.56 73.464C50.616 74.104 49.672 74.648 48.728 75.096C48.6 74.904 48.432 74.672 48.224 74.4C48.016 74.128 47.816 73.912 47.624 73.752C48.504 73.384 49.392 72.904 50.288 72.312C51.184 71.72 52.032 71.048 52.832 70.296C53.648 69.544 54.376 68.728 55.016 67.848C55.656 66.968 56.168 66.048 56.552 65.088V64.752ZM60.608 63.888C61.216 65.248 62.008 66.544 62.984 67.776C63.976 69.008 65.088 70.104 66.32 71.064C67.568 72.024 68.888 72.768 70.28 73.296C70.136 73.424 69.984 73.576 69.824 73.752C69.68 73.912 69.536 74.088 69.392 74.28C69.264 74.456 69.144 74.624 69.032 74.784C67.624 74.144 66.288 73.304 65.024 72.264C63.776 71.224 62.64 70.032 61.616 68.688C60.608 67.344 59.768 65.912 59.096 64.392L60.608 63.888ZM49.352 68.16L50.336 67.152C50.768 67.392 51.2 67.672 51.632 67.992C52.08 68.296 52.488 68.608 52.856 68.928C53.24 69.248 53.544 69.552 53.768 69.84L52.784 70.944C52.432 70.528 51.928 70.056 51.272 69.528C50.616 69 49.976 68.544 49.352 68.16ZM65.408 64.032L66.8 65.016C66.176 65.592 65.48 66.176 64.712 66.768C63.96 67.36 63.264 67.872 62.624 68.304L61.52 67.44C61.936 67.136 62.384 66.792 62.864 66.408C63.344 66.008 63.808 65.6 64.256 65.184C64.704 64.768 65.088 64.384 65.408 64.032ZM68.12 66.864L69.464 67.824C68.824 68.416 68.104 69.016 67.304 69.624C66.52 70.232 65.8 70.744 65.144 71.16L64.04 70.296C64.472 69.992 64.936 69.648 65.432 69.264C65.944 68.864 66.432 68.456 66.896 68.04C67.376 67.624 67.784 67.232 68.12 66.864ZM54.104 75.552V78.696H63.824V75.552H54.104ZM52.352 74.04H65.672V80.184H52.352V74.04ZM53.744 80.568L55.376 80.136C55.712 80.648 56.024 81.224 56.312 81.864C56.6 82.488 56.808 83.032 56.936 83.496L55.208 84.024C55.096 83.56 54.904 83 54.632 82.344C54.36 81.688 54.064 81.096 53.744 80.568ZM62.672 80.064L64.4 80.52C64.08 81.16 63.752 81.792 63.416 82.416C63.08 83.04 62.76 83.584 62.456 84.048L60.896 83.616C61.104 83.296 61.32 82.928 61.544 82.512C61.768 82.096 61.976 81.672 62.168 81.24C62.376 80.792 62.544 80.4 62.672 80.064ZM74.6 82.632H91.544V84.408H74.6V82.632ZM81.944 63.96H83.816V83.664H81.944V63.96ZM73.712 75.96H75.512V85.92H73.712V75.96ZM90.584 75.96H92.432V85.872H90.584V75.96ZM74.624 66.12H76.424V72.672H89.6V66.12H91.472V74.4H74.624V66.12Z" fill="white"/>
<path d="M1 99H141V148H1V99Z" fill="#243347"/>
<path d="M1 99V99.25H141V99V98.75H1V99ZM141 148V147.75H1V148V148.25H141V148Z" fill="#616161"/>
<path d="M57.176 114.064H66.704V115.768H57.176V114.064ZM56.936 122.248H64.976V123.952H56.936V122.248ZM60.2 115.024H61.928V120.856C61.928 122.024 61.88 123.224 61.784 124.456C61.688 125.688 61.488 126.912 61.184 128.128C60.88 129.344 60.416 130.536 59.792 131.704C59.184 132.856 58.36 133.944 57.32 134.968C57.24 134.84 57.12 134.696 56.96 134.536C56.8 134.376 56.632 134.224 56.456 134.08C56.296 133.936 56.144 133.824 56 133.744C56.96 132.784 57.72 131.776 58.28 130.72C58.84 129.648 59.256 128.56 59.528 127.456C59.816 126.336 60 125.216 60.08 124.096C60.16 122.976 60.2 121.888 60.2 120.832V115.024ZM65.792 114.064H67.616C67.6 115.76 67.584 117.4 67.568 118.984C67.568 120.552 67.568 122.032 67.568 123.424C67.584 124.8 67.624 126.056 67.688 127.192C67.752 128.328 67.84 129.312 67.952 130.144C68.064 130.976 68.216 131.632 68.408 132.112C68.6 132.592 68.832 132.872 69.104 132.952C69.168 132.968 69.232 132.8 69.296 132.448C69.36 132.096 69.416 131.632 69.464 131.056C69.512 130.48 69.552 129.856 69.584 129.184C69.696 129.328 69.816 129.488 69.944 129.664C70.088 129.824 70.224 129.984 70.352 130.144C70.496 130.288 70.608 130.4 70.688 130.48C70.608 131.808 70.464 132.808 70.256 133.48C70.048 134.152 69.784 134.576 69.464 134.752C69.16 134.944 68.8 134.96 68.384 134.8C67.824 134.624 67.368 134.144 67.016 133.36C66.68 132.592 66.424 131.576 66.248 130.312C66.072 129.048 65.952 127.576 65.888 125.896C65.84 124.216 65.808 122.384 65.792 120.4C65.792 118.4 65.792 116.288 65.792 114.064ZM49.04 120.112H56.072V121.528H49.04V120.112ZM49.136 113.68H55.976V115.12H49.136V113.68ZM49.04 123.304H56.072V124.744H49.04V123.304ZM47.912 116.824H56.864V118.336H47.912V116.824ZM49.856 126.544H56.096V133.552H49.856V132.064H54.512V128.056H49.856V126.544ZM49.016 126.544H50.6V134.656H49.016V126.544ZM78.176 128.464H79.952V132.424C79.952 132.728 80.04 132.92 80.216 133C80.392 133.096 80.808 133.144 81.464 133.144C81.624 133.144 81.896 133.144 82.28 133.144C82.68 133.144 83.12 133.144 83.6 133.144C84.08 133.144 84.528 133.144 84.944 133.144C85.36 133.144 85.672 133.144 85.88 133.144C86.232 133.144 86.488 133.096 86.648 133C86.824 132.888 86.944 132.664 87.008 132.328C87.088 131.992 87.144 131.496 87.176 130.84C87.32 130.92 87.48 131.008 87.656 131.104C87.848 131.184 88.048 131.256 88.256 131.32C88.464 131.384 88.648 131.44 88.808 131.488C88.728 132.384 88.6 133.064 88.424 133.528C88.248 134.008 87.968 134.336 87.584 134.512C87.216 134.688 86.704 134.776 86.048 134.776C85.92 134.776 85.696 134.776 85.376 134.776C85.072 134.776 84.712 134.776 84.296 134.776C83.88 134.776 83.464 134.776 83.048 134.776C82.648 134.776 82.288 134.776 81.968 134.776C81.664 134.776 81.456 134.776 81.344 134.776C80.512 134.776 79.864 134.712 79.4 134.584C78.952 134.456 78.632 134.216 78.44 133.864C78.264 133.528 78.176 133.048 78.176 132.424V128.464ZM80.648 127.6L81.968 126.688C82.448 126.992 82.928 127.344 83.408 127.744C83.888 128.128 84.328 128.52 84.728 128.92C85.128 129.32 85.448 129.704 85.688 130.072L84.296 131.104C84.056 130.736 83.744 130.352 83.36 129.952C82.976 129.536 82.544 129.12 82.064 128.704C81.6 128.288 81.128 127.92 80.648 127.6ZM88.4 128.92L89.84 128.008C90.432 128.488 91.016 129.032 91.592 129.64C92.168 130.232 92.688 130.832 93.152 131.44C93.632 132.032 94 132.592 94.256 133.12L92.696 134.128C92.456 133.616 92.104 133.056 91.64 132.448C91.192 131.84 90.688 131.224 90.128 130.6C89.568 129.976 88.992 129.416 88.4 128.92ZM74.912 128.272L76.496 128.848C76.192 129.776 75.792 130.72 75.296 131.68C74.8 132.64 74.16 133.456 73.376 134.128L71.888 133.072C72.64 132.512 73.264 131.792 73.76 130.912C74.256 130.016 74.64 129.136 74.912 128.272ZM77.528 119.584V121.552H88.736V119.584H77.528ZM77.528 122.968V124.936H88.736V122.968H77.528ZM77.528 116.248V118.192H88.736V116.248H77.528ZM75.776 114.808H90.56V126.4H75.776V114.808ZM82.16 112.6L84.272 112.96C84.032 113.456 83.776 113.944 83.504 114.424C83.248 114.888 83.016 115.296 82.808 115.648L81.2 115.24C81.376 114.856 81.552 114.416 81.728 113.92C81.92 113.408 82.064 112.968 82.16 112.6Z" fill="white"/>
<path d="M1 148H141V197H1V148Z" fill="#243347"/>
<path d="M1 148V148.25H141V148V147.75H1V148ZM141 197V196.75H1V197V197.25H141V197Z" fill="#616161"/>
<path d="M64.592 171.584H69.848V173.144H64.592V171.584ZM57.032 172.184H63.848V173.576H57.032V172.184ZM60.176 163.208H61.496V166.4H60.176V163.208ZM60.176 169.544H61.496V172.88H60.176V169.544ZM55.712 181.76H70.208V183.32H55.712V181.76ZM57.032 162.56H63.608V163.952H58.424V173.072H57.032V162.56ZM57.824 165.824H63.44V170.312H57.848V169.064H62.192V167.072H57.824V165.824ZM65.48 161.984L67.088 162.248C66.88 163.688 66.584 165.096 66.2 166.472C65.816 167.832 65.368 168.984 64.856 169.928C64.76 169.848 64.624 169.752 64.448 169.64C64.272 169.528 64.096 169.424 63.92 169.328C63.744 169.232 63.584 169.152 63.44 169.088C63.968 168.208 64.4 167.136 64.736 165.872C65.072 164.592 65.32 163.296 65.48 161.984ZM47.96 181.544C49.032 181.352 50.328 181.112 51.848 180.824C53.368 180.536 54.912 180.232 56.48 179.912L56.624 181.472C55.184 181.776 53.728 182.08 52.256 182.384C50.8 182.688 49.504 182.96 48.368 183.2L47.96 181.544ZM49.352 167.816H55.736V169.352H49.352V167.816ZM48.248 171.848H56.168V173.432H48.248V171.848ZM48.68 175.016L49.904 174.752C50.128 175.472 50.32 176.256 50.48 177.104C50.64 177.952 50.736 178.68 50.768 179.288L49.472 179.6C49.456 178.976 49.376 178.24 49.232 177.392C49.088 176.544 48.904 175.752 48.68 175.016ZM54.872 174.512L56.24 174.848C56.048 175.584 55.856 176.344 55.664 177.128C55.472 177.912 55.288 178.592 55.112 179.168L53.936 178.832C54.048 178.448 54.16 178 54.272 177.488C54.4 176.96 54.52 176.432 54.632 175.904C54.744 175.376 54.824 174.912 54.872 174.512ZM51.704 168.464H53.216V181.256L51.704 181.472V168.464ZM65.48 165.416H70.064V167.024H65.048L65.48 165.416ZM57.56 175.088H69.032V182.432H67.472V176.576H65.456V182.432H64.232V176.576H62.264V182.432H61.016V176.576H59.048V182.432H57.56V175.088ZM51.728 161.84H52.664V162.224H53.192V162.704C52.888 163.312 52.52 163.992 52.088 164.744C51.672 165.48 51.168 166.232 50.576 167C49.984 167.768 49.304 168.504 48.536 169.208C48.456 169.096 48.344 168.968 48.2 168.824C48.072 168.664 47.936 168.52 47.792 168.392C47.664 168.248 47.536 168.144 47.408 168.08C48.112 167.456 48.736 166.784 49.28 166.064C49.84 165.344 50.32 164.624 50.72 163.904C51.136 163.168 51.472 162.48 51.728 161.84ZM51.992 161.84H53.336C53.8 162.288 54.264 162.776 54.728 163.304C55.208 163.832 55.656 164.36 56.072 164.888C56.488 165.4 56.824 165.864 57.08 166.28L55.784 167.6C55.544 167.184 55.232 166.704 54.848 166.16C54.464 165.616 54.048 165.072 53.6 164.528C53.168 163.984 52.736 163.504 52.304 163.088H51.992V161.84ZM76.064 169.184H90.08V170.912H76.064V169.184ZM82.976 174.92H91.064V176.6H82.976V174.92ZM82.04 170.048H83.912V182.216L82.04 181.952V170.048ZM76.328 172.952L78.2 173.168C77.864 175.584 77.304 177.704 76.52 179.528C75.736 181.352 74.672 182.856 73.328 184.04C73.232 183.928 73.088 183.792 72.896 183.632C72.72 183.488 72.536 183.336 72.344 183.176C72.152 183.032 71.984 182.912 71.84 182.816C73.168 181.776 74.184 180.416 74.888 178.736C75.608 177.056 76.088 175.128 76.328 172.952ZM77.48 176.048C77.896 177.28 78.44 178.272 79.112 179.024C79.784 179.776 80.56 180.352 81.44 180.752C82.32 181.152 83.288 181.424 84.344 181.568C85.416 181.712 86.568 181.784 87.8 181.784C87.976 181.784 88.264 181.784 88.664 181.784C89.064 181.784 89.512 181.784 90.008 181.784C90.52 181.784 91.04 181.784 91.568 181.784C92.096 181.784 92.576 181.784 93.008 181.784C93.44 181.784 93.768 181.776 93.992 181.76C93.912 181.904 93.824 182.088 93.728 182.312C93.632 182.536 93.544 182.76 93.464 182.984C93.4 183.208 93.352 183.408 93.32 183.584H92.12H87.704C86.28 183.584 84.96 183.488 83.744 183.296C82.544 183.12 81.456 182.784 80.48 182.288C79.52 181.792 78.664 181.088 77.912 180.176C77.16 179.264 76.528 178.08 76.016 176.624L77.48 176.048ZM82.016 161.84H83.912V165.728H82.016V161.84ZM72.968 164.6H93.032V169.832H91.184V166.328H74.744V169.832H72.968V164.6Z" fill="white"/>
<path d="M1 197H141V238C141 242.418 137.418 246 133 246H9C4.58172 246 1 242.418 1 238V197Z" fill="#243347"/>
<path d="M1 196.75H141V197.25H1V196.75ZM141 238C141 242.556 137.306 246.25 132.75 246.25H9.25C4.69365 246.25 1 242.556 1 238C1 242.28 4.58172 245.75 9 245.75H133C137.418 245.75 141 242.28 141 238ZM1 246V197V246ZM141 197V246V197Z" fill="#616161"/>
<path d="M29.504 230.712H42.2V232.128H29.504V230.712ZM34.064 215.688H35.816V218.352H34.064V215.688ZM24.968 217.584H45.224V222.096H43.472V219H26.672V222.096H24.968V217.584ZM29.408 220.488H41.72V225.312H29.408V223.944H39.92V221.88H29.408V220.488ZM29.48 226.968H43.256V232.896H41.456V228.384H29.48V226.968ZM28.448 220.488H30.152V232.944H28.448V220.488ZM26.936 212.688H34.688V214.152H26.936V212.688ZM36.272 212.688H45.968V214.152H36.272V212.688ZM27.392 210.72L29.072 211.176C28.64 212.216 28.088 213.232 27.416 214.224C26.76 215.216 26.088 216.048 25.4 216.72C25.288 216.64 25.136 216.536 24.944 216.408C24.768 216.28 24.584 216.152 24.392 216.024C24.216 215.896 24.056 215.8 23.912 215.736C24.616 215.112 25.28 214.36 25.904 213.48C26.528 212.584 27.024 211.664 27.392 210.72ZM36.824 210.72L38.552 211.152C38.12 212.176 37.552 213.152 36.848 214.08C36.144 215.008 35.408 215.784 34.64 216.408C34.528 216.328 34.376 216.232 34.184 216.12C34.008 215.992 33.816 215.872 33.608 215.76C33.416 215.648 33.24 215.56 33.08 215.496C33.88 214.92 34.608 214.216 35.264 213.384C35.936 212.536 36.456 211.648 36.824 210.72ZM28.256 213.816L29.816 213.408C30.104 213.824 30.384 214.296 30.656 214.824C30.928 215.336 31.128 215.776 31.256 216.144L29.6 216.624C29.504 216.256 29.328 215.808 29.072 215.28C28.816 214.736 28.544 214.248 28.256 213.816ZM38.456 213.84L40.016 213.36C40.4 213.776 40.776 214.248 41.144 214.776C41.528 215.288 41.816 215.744 42.008 216.144L40.376 216.696C40.2 216.296 39.928 215.832 39.56 215.304C39.192 214.76 38.824 214.272 38.456 213.84ZM58.424 218.04V221.136H67.328V218.04H58.424ZM58.424 213.528V216.576H67.328V213.528H58.424ZM56.768 211.944H69.056V222.696H56.768V211.944ZM56.48 225.528H69.392V227.16H56.48V225.528ZM54.632 230.472H70.208V232.128H54.632V230.472ZM48.104 212.448H55.592V214.152H48.104V212.448ZM48.344 219.408H55.232V221.088H48.344V219.408ZM47.84 228.6C48.496 228.408 49.232 228.192 50.048 227.952C50.88 227.696 51.752 227.416 52.664 227.112C53.592 226.792 54.52 226.48 55.448 226.176L55.76 227.928C54.464 228.36 53.16 228.8 51.848 229.248C50.536 229.68 49.352 230.072 48.296 230.424L47.84 228.6ZM51.08 213.12H52.808V228L51.08 228.336V213.12ZM62.096 212.688H63.656V221.928H63.8V231.216H61.952V221.928H62.096V212.688ZM72.656 213.12H93.416V214.776H72.656V213.12ZM81.992 210.84H83.84V214.056H81.992V210.84ZM73.664 217.32H91.784V218.904H75.392V232.896H73.664V217.32ZM90.824 217.32H92.576V230.688C92.576 231.216 92.504 231.632 92.36 231.936C92.216 232.24 91.952 232.464 91.568 232.608C91.168 232.752 90.632 232.84 89.96 232.872C89.288 232.904 88.456 232.92 87.464 232.92C87.432 232.76 87.384 232.576 87.32 232.368C87.256 232.16 87.184 231.944 87.104 231.72C87.024 231.512 86.936 231.328 86.84 231.168C87.624 231.184 88.344 231.192 89 231.192C89.656 231.208 90.088 231.208 90.296 231.192C90.504 231.176 90.64 231.128 90.704 231.048C90.784 230.984 90.824 230.864 90.824 230.688V217.32ZM79.712 218.472H81.368C81.288 219.528 81.096 220.424 80.792 221.16C80.488 221.896 79.984 222.504 79.28 222.984C78.592 223.464 77.632 223.848 76.4 224.136C76.336 223.944 76.216 223.72 76.04 223.464C75.864 223.208 75.696 223.008 75.536 222.864C76.608 222.64 77.432 222.344 78.008 221.976C78.6 221.608 79.016 221.144 79.256 220.584C79.496 220.024 79.648 219.32 79.712 218.472ZM84.176 218.496H85.784V221.28C85.784 221.504 85.824 221.648 85.904 221.712C85.984 221.776 86.176 221.808 86.48 221.808C86.544 221.808 86.672 221.808 86.864 221.808C87.056 221.808 87.264 221.808 87.488 221.808C87.728 221.808 87.944 221.808 88.136 221.808C88.344 221.808 88.496 221.808 88.592 221.808C88.752 221.808 88.872 221.776 88.952 221.712C89.048 221.648 89.12 221.504 89.168 221.28C89.216 221.04 89.248 220.688 89.264 220.224C89.424 220.336 89.64 220.448 89.912 220.56C90.184 220.656 90.432 220.728 90.656 220.776C90.576 221.736 90.4 222.384 90.128 222.72C89.872 223.04 89.424 223.2 88.784 223.2C88.704 223.2 88.544 223.2 88.304 223.2C88.08 223.2 87.824 223.2 87.536 223.2C87.264 223.2 87.008 223.2 86.768 223.2C86.544 223.2 86.384 223.2 86.288 223.2C85.728 223.2 85.296 223.144 84.992 223.032C84.688 222.92 84.472 222.728 84.344 222.456C84.232 222.184 84.176 221.8 84.176 221.304V218.496ZM78.536 224.424H80.168V231.816H78.536V224.424ZM79.52 224.424H87.68V230.328H79.52V228.912H86.024V225.84H79.52V224.424ZM77.264 214.752L78.992 214.416C79.28 214.864 79.544 215.36 79.784 215.904C80.04 216.448 80.232 216.928 80.36 217.344L78.512 217.776C78.416 217.36 78.248 216.872 78.008 216.312C77.768 215.736 77.52 215.216 77.264 214.752ZM86.912 214.344L88.88 214.704C88.608 215.264 88.32 215.816 88.016 216.36C87.728 216.904 87.456 217.368 87.2 217.752L85.448 217.392C85.704 216.976 85.968 216.48 86.24 215.904C86.512 215.312 86.736 214.792 86.912 214.344ZM102.248 213.576V218.136H111.824V213.576H102.248ZM100.496 211.872H113.672V219.864H100.496V211.872ZM96.992 222.432H105.536V232.704H103.736V224.136H98.72V232.92H96.992V222.432ZM108.176 222.432H117.2V232.776H115.376V224.136H109.904V232.92H108.176V222.432ZM97.784 229.872H104.48V231.624H97.784V229.872ZM109.04 229.872H116.168V231.624H109.04V229.872Z" fill="white"/>
</svg>
