<svg width="24" height="24" viewBox="0 0 24 24" fill="none" xmlns="http://www.w3.org/2000/svg">
<g clip-path="url(#clip0_35_31)">
<path d="M16.4295 2.74995C16.4683 2.74995 16.5066 2.74091 16.5413 2.72355C16.576 2.7062 16.6062 2.681 16.6295 2.64995C16.6465 2.61398 16.6552 2.57471 16.6552 2.53495C16.6552 2.49519 16.6465 2.45592 16.6295 2.41995L15.9995 0.339948C15.9647 0.236457 15.897 0.147198 15.8067 0.0858046C15.7165 0.0244108 15.6086 -0.00574346 15.4995 -5.24431e-05H8.49953C8.3905 -0.00574346 8.2826 0.0244108 8.19231 0.0858046C8.10203 0.147198 8.03432 0.236457 7.99953 0.339948L7.29953 2.41995C7.2826 2.45592 7.27382 2.49519 7.27382 2.53495C7.27382 2.57471 7.2826 2.61398 7.29953 2.64995C7.32282 2.681 7.35301 2.7062 7.38773 2.72355C7.42244 2.74091 7.46072 2.74995 7.49953 2.74995H16.4295ZM7.56953 21.2499C7.53072 21.2499 7.49244 21.259 7.45773 21.2763C7.42301 21.2937 7.39282 21.3189 7.36953 21.3499C7.3526 21.3859 7.34382 21.4252 7.34382 21.4649C7.34382 21.5047 7.3526 21.544 7.36953 21.5799L7.99953 23.6599C8.03432 23.7634 8.10203 23.8527 8.19231 23.9141C8.2826 23.9755 8.3905 24.0056 8.49953 23.9999H15.4995C15.6035 23.9992 15.7046 23.966 15.7889 23.9051C15.8731 23.8441 15.9363 23.7585 15.9695 23.6599L16.6695 21.5799C16.6865 21.544 16.6952 21.5047 16.6952 21.4649C16.6952 21.4252 16.6865 21.3859 16.6695 21.3499C16.6462 21.3189 16.616 21.2937 16.5813 21.2763C16.5466 21.259 16.5083 21.2499 16.4695 21.2499H7.56953ZM17.4995 3.99995H6.49953C5.83649 3.99995 5.20061 4.26334 4.73177 4.73218C4.26292 5.20102 3.99953 5.83691 3.99953 6.49995V17.4999C3.98774 18.0848 4.18142 18.6553 4.54685 19.1121C4.91229 19.5689 5.42634 19.8831 5.99953 19.9999L17.4995 20.0499C17.8321 20.05 18.1613 19.9837 18.4679 19.855C18.7746 19.7262 19.0524 19.5376 19.2852 19.3001C19.518 19.0627 19.7011 18.7811 19.8238 18.472C19.9464 18.1629 20.0062 17.8324 19.9995 17.4999V6.49995C19.9995 5.83691 19.7361 5.20102 19.2673 4.73218C18.7985 4.26334 18.1626 3.99995 17.4995 3.99995ZM15.9995 12.6799L11.9995 16.8099C11.9517 16.8583 11.8875 16.8869 11.8195 16.8899C11.7855 16.8908 11.7517 16.884 11.7205 16.8702C11.6894 16.8564 11.6617 16.8358 11.6395 16.8099L7.63953 12.6799C7.39226 12.4575 7.19287 12.187 7.05352 11.885C6.91417 11.5829 6.83778 11.2557 6.82901 10.9232C6.82023 10.5907 6.87925 10.2599 7.00248 9.95094C7.1257 9.64198 7.31054 9.36136 7.54574 9.12616C7.78094 8.89096 8.06157 8.70612 8.37052 8.58289C8.67948 8.45967 9.01029 8.40065 9.34279 8.40942C9.6753 8.4182 10.0025 8.49459 10.3046 8.63393C10.6066 8.77328 10.8771 8.97267 11.0995 9.21995L11.5995 9.71995C11.6474 9.76351 11.7098 9.78766 11.7745 9.78766C11.8393 9.78766 11.9017 9.76351 11.9495 9.71995L12.4495 9.21995C12.6767 8.98685 12.9476 8.80079 13.2467 8.67237C13.5458 8.54396 13.8672 8.47572 14.1927 8.47154C14.5182 8.46736 14.8413 8.52733 15.1436 8.64802C15.4459 8.76871 15.7214 8.94776 15.9545 9.17495C16.1876 9.40213 16.3737 9.67301 16.5021 9.9721C16.6305 10.2712 16.6988 10.5927 16.7029 10.9181C16.7071 11.2436 16.6472 11.5667 16.5265 11.869C16.4058 12.1713 16.2267 12.4469 15.9995 12.6799Z" fill="white"/>
</g>
<defs>
<clipPath id="clip0_35_31">
<rect width="24" height="24" fill="white"/>
</clipPath>
</defs>
</svg>
