<svg width="24" height="24" viewBox="0 0 24 24" fill="none" xmlns="http://www.w3.org/2000/svg">
<g id="&#230;&#148;&#182;&#232;&#151;&#143;icon" clip-path="url(#clip0_0_88)">
<path id="Vector" d="M16.4295 2.75019C16.4683 2.75019 16.5066 2.74116 16.5413 2.7238C16.576 2.70644 16.6062 2.68124 16.6295 2.65019C16.6465 2.61422 16.6552 2.57495 16.6552 2.53519C16.6552 2.49543 16.6465 2.45616 16.6295 2.42019L15.9995 0.340192C15.9647 0.236701 15.897 0.147443 15.8067 0.0860487C15.7165 0.0246549 15.6086 -0.00549932 15.4995 0.000191698H8.49953C8.3905 -0.00549932 8.2826 0.0246549 8.19231 0.0860487C8.10203 0.147443 8.03432 0.236701 7.99953 0.340192L7.29953 2.42019C7.2826 2.45616 7.27382 2.49543 7.27382 2.53519C7.27382 2.57495 7.2826 2.61422 7.29953 2.65019C7.32282 2.68124 7.35301 2.70644 7.38773 2.7238C7.42244 2.74116 7.46072 2.75019 7.49953 2.75019H16.4295ZM7.56953 21.2502C7.53072 21.2502 7.49244 21.2592 7.45773 21.2766C7.42301 21.2939 7.39282 21.3191 7.36953 21.3502C7.3526 21.3862 7.34382 21.4254 7.34382 21.4652C7.34382 21.505 7.3526 21.5442 7.36953 21.5802L7.99953 23.6602C8.03432 23.7637 8.10203 23.8529 8.19231 23.9143C8.2826 23.9757 8.3905 24.0059 8.49953 24.0002H15.4995C15.6035 23.9994 15.7046 23.9663 15.7889 23.9053C15.8731 23.8444 15.9363 23.7587 15.9695 23.6602L16.6695 21.5802C16.6865 21.5442 16.6952 21.505 16.6952 21.4652C16.6952 21.4254 16.6865 21.3862 16.6695 21.3502C16.6462 21.3191 16.616 21.2939 16.5813 21.2766C16.5466 21.2592 16.5083 21.2502 16.4695 21.2502H7.56953ZM17.4995 4.00019H6.49953C5.83649 4.00019 5.20061 4.26358 4.73177 4.73242C4.26292 5.20127 3.99953 5.83715 3.99953 6.50019V17.5002C3.98774 18.0851 4.18142 18.6555 4.54685 19.1123C4.91229 19.5691 5.42634 19.8833 5.99953 20.0002L17.4995 20.0502C17.8321 20.0503 18.1613 19.984 18.4679 19.8552C18.7746 19.7265 19.0524 19.5378 19.2852 19.3004C19.518 19.0629 19.7011 18.7814 19.8238 18.4723C19.9464 18.1632 20.0062 17.8327 19.9995 17.5002V6.50019C19.9995 5.83715 19.7361 5.20127 19.2673 4.73242C18.7985 4.26358 18.1626 4.00019 17.4995 4.00019ZM15.9995 12.6802L11.9995 16.8102C11.9517 16.8586 11.8875 16.8871 11.8195 16.8902C11.7855 16.891 11.7517 16.8843 11.7205 16.8704C11.6894 16.8566 11.6617 16.836 11.6395 16.8102L7.63953 12.6802C7.39226 12.4577 7.19287 12.1872 7.05352 11.8852C6.91417 11.5832 6.83778 11.256 6.82901 10.9235C6.82023 10.5909 6.87925 10.2601 7.00248 9.95118C7.1257 9.64223 7.31054 9.3616 7.54574 9.1264C7.78094 8.8912 8.06157 8.70636 8.37052 8.58314C8.67948 8.45991 9.01029 8.40089 9.34279 8.40967C9.6753 8.41844 10.0025 8.49483 10.3046 8.63418C10.6066 8.77353 10.8771 8.97291 11.0995 9.22019L11.5995 9.72019C11.6474 9.76376 11.7098 9.7879 11.7745 9.7879C11.8393 9.7879 11.9017 9.76376 11.9495 9.72019L12.4495 9.22019C12.6767 8.9871 12.9476 8.80103 13.2467 8.67262C13.5458 8.5442 13.8672 8.47596 14.1927 8.47178C14.5182 8.4676 14.8413 8.52757 15.1436 8.64826C15.4459 8.76895 15.7214 8.948 15.9545 9.17519C16.1876 9.40238 16.3737 9.67325 16.5021 9.97235C16.6305 10.2714 16.6988 10.5929 16.7029 10.9184C16.7071 11.2438 16.6472 11.5669 16.5265 11.8692C16.4058 12.1715 16.2267 12.4471 15.9995 12.6802Z" fill="white"/>
</g>
<defs>
<clipPath id="clip0_0_88">
<rect width="24" height="24" fill="white"/>
</clipPath>
</defs>
</svg>
