<svg width="24" height="24" viewBox="0 0 24 24" fill="none" xmlns="http://www.w3.org/2000/svg">
<g id="cil:cart" clip-path="url(#clip0_0_92)">
<path id="Vector" d="M7.5 4.50183V6.00183H21.75V8.97112L20.0859 14.2518H7.02806L5.15306 0.75H0.75V2.25H3.84694L5.72194 15.7518H21.186L23.25 9.20184V4.50183H7.5ZM8.29612 17.2661C7.50075 17.267 6.73822 17.5834 6.17581 18.1458C5.61339 18.7082 5.29703 19.4708 5.29612 20.2661C5.29612 21.0618 5.6122 21.8248 6.1748 22.3874C6.73741 22.9501 7.50048 23.2661 8.29612 23.2661C9.09177 23.2661 9.85484 22.9501 10.4174 22.3874C10.9801 21.8248 11.2961 21.0618 11.2961 20.2661C11.2953 19.4707 10.9789 18.7082 10.4165 18.1458C9.85406 17.5833 9.09151 17.267 8.29612 17.2661ZM8.29612 21.7661C7.99945 21.7661 7.70944 21.6782 7.46277 21.5133C7.2161 21.3485 7.02384 21.1142 6.91031 20.8402C6.79677 20.5661 6.76707 20.2645 6.82495 19.9735C6.88283 19.6825 7.02569 19.4152 7.23547 19.2055C7.44524 18.9957 7.71252 18.8528 8.00349 18.7949C8.29446 18.7371 8.59606 18.7668 8.87015 18.8803C9.14424 18.9938 9.37851 19.1861 9.54333 19.4328C9.70815 19.6794 9.79612 19.9695 9.79612 20.2661C9.79563 20.6638 9.63743 21.045 9.35624 21.3262C9.07504 21.6074 8.6938 21.7656 8.29612 21.7661ZM18.7961 17.2661C18.0008 17.267 17.2382 17.5834 16.6758 18.1458C16.1134 18.7082 15.797 19.4708 15.7961 20.2661C15.7961 21.0618 16.1122 21.8248 16.6748 22.3874C17.2374 22.9501 18.0005 23.2661 18.7961 23.2661C19.5918 23.2661 20.3548 22.9501 20.9174 22.3874C21.4801 21.8248 21.7961 21.0618 21.7961 20.2661C21.7953 19.4707 21.4789 18.7082 20.9165 18.1458C20.3541 17.5833 19.5915 17.267 18.7961 17.2661ZM18.7961 21.7661C18.4995 21.7661 18.2094 21.6782 17.9628 21.5133C17.7161 21.3485 17.5238 21.1142 17.4103 20.8402C17.2968 20.5661 17.2671 20.2645 17.3249 19.9735C17.3828 19.6825 17.5257 19.4152 17.7355 19.2055C17.9452 18.9957 18.2125 18.8528 18.5035 18.7949C18.7945 18.7371 19.0961 18.7668 19.3701 18.8803C19.6442 18.9938 19.8785 19.1861 20.0433 19.4328C20.2082 19.6794 20.2961 19.9695 20.2961 20.2661C20.2956 20.6638 20.1374 21.045 19.8562 21.3262C19.575 21.6074 19.1938 21.7656 18.7961 21.7661Z" fill="white"/>
</g>
<defs>
<clipPath id="clip0_0_92">
<rect width="24" height="24" fill="white"/>
</clipPath>
</defs>
</svg>
