<svg width="22" height="22" viewBox="0 0 22 22" fill="none" xmlns="http://www.w3.org/2000/svg">
<g id="Group">
<path id="Vector" d="M15.2331 3.55867C13.6512 1.97777 12.8613 1.18681 11.835 0.893145C10.8087 0.598454 9.71891 0.850169 7.54045 1.3536L6.28392 1.64317C4.45029 2.06577 3.53347 2.27758 2.90521 2.90482C2.27694 3.53206 2.06718 4.45092 1.64356 6.28353L1.35296 7.54006C0.850557 9.71955 0.598842 10.8083 0.89251 11.8346C1.1872 12.8609 1.97816 13.6508 3.55905 15.2317L5.43157 17.1042C8.18407 19.8577 9.55929 21.2319 11.2681 21.2319C12.9779 21.2319 14.3531 19.8567 17.1046 17.1052C19.8571 14.3527 21.2323 12.9775 21.2323 11.2677C21.2323 9.89452 20.3442 8.73622 18.5678 6.90668" stroke="white" stroke-width="1.5" stroke-linecap="round"/>
<path id="Vector_2" d="M7.52835 9.85261C7.93311 9.85261 8.32877 9.73259 8.66531 9.50772C9.00185 9.28285 9.26415 8.96324 9.41904 8.5893C9.57393 8.21535 9.61446 7.80388 9.5355 7.4069C9.45653 7.00993 9.26163 6.64528 8.97542 6.35908C8.68922 6.07287 8.32458 5.87797 7.9276 5.799C7.53062 5.72004 7.11915 5.76057 6.74521 5.91546C6.37126 6.07035 6.05165 6.33265 5.82678 6.66919C5.60191 7.00573 5.48189 7.40139 5.48189 7.80615M10.5315 17.6507L11.5548 16.6274M17.6727 10.5085L14.0699 14.1134" stroke="white" stroke-width="1.5" stroke-linecap="round"/>
</g>
</svg>
