<svg width="20" height="17" viewBox="0 0 20 17" fill="none" xmlns="http://www.w3.org/2000/svg">
<path id="Vector-0_5" fill-rule="evenodd" clip-rule="evenodd" d="M16.9231 6.92308C16.9231 7.34791 16.5787 7.69231 16.1538 7.69231H12.3077C11.8829 7.69231 11.5385 7.34791 11.5385 6.92308C11.5385 6.49824 11.8829 6.15385 12.3077 6.15385H16.1538C16.5787 6.15385 16.9231 6.49824 16.9231 6.92308ZM16.1538 9.23077H12.3077C11.8829 9.23077 11.5385 9.57517 11.5385 10C11.5385 10.4248 11.8829 10.7692 12.3077 10.7692H16.1538C16.5787 10.7692 16.9231 10.4248 16.9231 10C16.9231 9.57517 16.5787 9.23077 16.1538 9.23077ZM20 1.53846V15.3846C20 16.2343 19.3112 16.9231 18.4615 16.9231H1.53846C0.688793 16.9231 0 16.2343 0 15.3846V1.53846C0 0.688792 0.688793 0 1.53846 0H18.4615C19.3112 0 20 0.688792 20 1.53846ZM18.4615 15.3846V1.53846H1.53846V15.3846H18.4615ZM10.7442 12.1154C10.8504 12.5269 10.6029 12.9467 10.1913 13.0529C9.77979 13.1591 9.36006 12.9116 9.25385 12.5C9.00096 11.5135 7.99808 10.7692 6.92212 10.7692C5.84615 10.7692 4.84423 11.5135 4.59038 12.5C4.48418 12.9116 4.06444 13.1591 3.65288 13.0529C3.24133 12.9467 2.99379 12.5269 3.1 12.1154C3.34962 11.1863 3.93967 10.3851 4.75288 9.87115C3.86909 8.99261 3.60249 7.66774 4.07766 6.51572C4.55283 5.3637 5.67595 4.61205 6.92212 4.61205C8.16828 4.61205 9.2914 5.3637 9.76657 6.51572C10.2417 7.66774 9.97514 8.99261 9.09135 9.87115C9.90545 10.3844 10.496 11.1858 10.7452 12.1154H10.7442ZM6.92308 9.23077C7.77275 9.23077 8.46154 8.54198 8.46154 7.69231C8.46154 6.84264 7.77275 6.15385 6.92308 6.15385C6.07341 6.15385 5.38462 6.84264 5.38462 7.69231C5.38462 8.54198 6.07341 9.23077 6.92308 9.23077Z" fill="white"/>
</svg>
