<svg width="20" height="20" viewBox="0 0 20 20" fill="none" xmlns="http://www.w3.org/2000/svg">
<path id="Vector-0_3" fill-rule="evenodd" clip-rule="evenodd" d="M10 0C4.47715 0 0 4.47715 0 10C0 15.5228 4.47715 20 10 20C15.5228 20 20 15.5228 20 10C19.9942 4.47957 15.5204 0.00582964 10 0ZM10.7692 18.426V12.3077H13.0769C13.5018 12.3077 13.8462 11.9633 13.8462 11.5385C13.8462 11.1136 13.5018 10.7692 13.0769 10.7692H10.7692V8.46154C10.7692 7.61187 11.458 6.92308 12.3077 6.92308H13.8462C14.271 6.92308 14.6154 6.57868 14.6154 6.15385C14.6154 5.72901 14.271 5.38462 13.8462 5.38462H12.3077C10.6084 5.38462 9.23077 6.7622 9.23077 8.46154V10.7692H6.92308C6.49824 10.7692 6.15385 11.1136 6.15385 11.5385C6.15385 11.9633 6.49824 12.3077 6.92308 12.3077H9.23077V18.426C4.72603 18.0147 1.3414 14.1332 1.54723 9.61445C1.75305 5.09566 5.47653 1.53792 10 1.53792C14.5235 1.53792 18.2469 5.09566 18.4528 9.61445C18.6586 14.1332 15.274 18.0147 10.7692 18.426Z" fill="#5B84C5"/>
</svg>
