<svg width="28" height="28" viewBox="0 0 28 28" fill="none" xmlns="http://www.w3.org/2000/svg">
<g id="bi:sort-down">
<path id="Vector" d="M6.12488 23.625C6.12488 23.8571 6.0327 24.0796 5.8686 24.2437C5.70451 24.4078 5.48195 24.5 5.24988 24.5C5.01782 24.5 4.79526 24.4078 4.63117 24.2437C4.46707 24.0796 4.37488 23.8571 4.37488 23.625V8.23725L2.36938 10.2445C2.20508 10.4088 1.98224 10.5011 1.74988 10.5011C1.51753 10.5011 1.29469 10.4088 1.13038 10.2445C0.966083 10.0802 0.873779 9.85736 0.873779 9.625C0.873779 9.39264 0.966083 9.1698 1.13038 9.0055L4.63038 5.50725L4.64263 5.495C4.80692 5.33481 5.02785 5.24602 5.2573 5.24799C5.48675 5.24996 5.70612 5.34251 5.86763 5.5055L9.36763 9.0055C9.44899 9.08674 9.51354 9.18321 9.55762 9.28939C9.60169 9.39558 9.62442 9.50941 9.6245 9.62438C9.62458 9.73935 9.60201 9.85321 9.55809 9.95946C9.51417 10.0657 9.44975 10.1623 9.36851 10.2436C9.28727 10.325 9.1908 10.3895 9.08461 10.4336C8.97843 10.4777 8.8646 10.5004 8.74963 10.5005C8.63466 10.5006 8.5208 10.478 8.41455 10.4341C8.3083 10.3902 8.21174 10.3257 8.13038 10.2445L6.12488 8.23725V23.625ZM12.2499 21.875C12.2499 22.1071 12.3421 22.3296 12.5062 22.4937C12.6703 22.6578 12.8928 22.75 13.1249 22.75H25.3749C25.6069 22.75 25.8295 22.6578 25.9936 22.4937C26.1577 22.3296 26.2499 22.1071 26.2499 21.875C26.2499 21.6429 26.1577 21.4204 25.9936 21.2563C25.8295 21.0922 25.6069 21 25.3749 21H13.1249C12.8928 21 12.6703 21.0922 12.5062 21.2563C12.3421 21.4204 12.2499 21.6429 12.2499 21.875ZM13.1249 17.5C12.8928 17.5 12.6703 17.4078 12.5062 17.2437C12.3421 17.0796 12.2499 16.8571 12.2499 16.625C12.2499 16.3929 12.3421 16.1704 12.5062 16.0063C12.6703 15.8422 12.8928 15.75 13.1249 15.75H21.8749C22.1069 15.75 22.3295 15.8422 22.4936 16.0063C22.6577 16.1704 22.7499 16.3929 22.7499 16.625C22.7499 16.8571 22.6577 17.0796 22.4936 17.2437C22.3295 17.4078 22.1069 17.5 21.8749 17.5H13.1249ZM13.1249 12.25C12.8928 12.25 12.6703 12.1578 12.5062 11.9937C12.3421 11.8296 12.2499 11.6071 12.2499 11.375C12.2499 11.1429 12.3421 10.9204 12.5062 10.7563C12.6703 10.5922 12.8928 10.5 13.1249 10.5H18.3749C18.6069 10.5 18.8295 10.5922 18.9936 10.7563C19.1577 10.9204 19.2499 11.1429 19.2499 11.375C19.2499 11.6071 19.1577 11.8296 18.9936 11.9937C18.8295 12.1578 18.6069 12.25 18.3749 12.25H13.1249ZM13.1249 7C12.8928 7 12.6703 6.90781 12.5062 6.74372C12.3421 6.57962 12.2499 6.35707 12.2499 6.125C12.2499 5.89293 12.3421 5.67038 12.5062 5.50628C12.6703 5.34219 12.8928 5.25 13.1249 5.25H14.8749C15.1069 5.25 15.3295 5.34219 15.4936 5.50628C15.6577 5.67038 15.7499 5.89293 15.7499 6.125C15.7499 6.35707 15.6577 6.57962 15.4936 6.74372C15.3295 6.90781 15.1069 7 14.8749 7H13.1249Z" fill="white"/>
</g>
</svg>
