<svg width="35" height="25" viewBox="0 0 35 25" fill="none" xmlns="http://www.w3.org/2000/svg">
<g id="Group">
<path id="Vector" d="M25.4547 12.476H8.70824M8.70824 12.476L13.3135 17.0813M8.70824 12.476L13.3135 7.87075" stroke="white" stroke-width="1.5" stroke-linecap="round" stroke-linejoin="round"/>
<path id="Vector_2" d="M0.75359 17.5V7.45217C0.75359 5.6756 1.45933 3.97179 2.71556 2.71556C3.97179 1.45933 5.6756 0.75359 7.45217 0.75359H27.5479C29.3245 0.75359 31.0283 1.45933 32.2845 2.71556C33.5408 3.97179 34.2465 5.6756 34.2465 7.45217V17.5C34.2465 19.2766 33.5408 20.9804 32.2845 22.2367C31.0283 23.4929 29.3245 24.1986 27.5479 24.1986H7.45217C5.6756 24.1986 3.97179 23.4929 2.71556 22.2367C1.45933 20.9804 0.75359 19.2766 0.75359 17.5Z" stroke="white" stroke-width="1.5"/>
</g>
</svg>
