<svg width="80" height="80" viewBox="0 0 80 80" fill="none" xmlns="http://www.w3.org/2000/svg">
<g id="&#229;&#147;&#129;&#231;&#137;&#140;icon">
<path id="Vector" d="M53.3335 73.3337L51.4168 65.667C49.4168 64.2226 47.8479 62.4314 46.7102 60.2937C45.5724 58.1559 45.0024 55.8359 45.0002 53.3337C44.9979 50.8314 45.5679 48.5126 46.7102 46.377C47.8524 44.2414 49.4213 42.4492 51.4168 41.0003L53.3335 33.3337H66.6668L68.5835 41.0003C70.5835 42.4448 72.1535 44.237 73.2935 46.377C74.4335 48.517 75.0024 50.8359 75.0002 53.3337C74.9979 55.8314 74.4279 58.1514 73.2902 60.2937C72.1524 62.4359 70.5835 64.227 68.5835 65.667L66.6668 73.3337H53.3335ZM60.0002 61.667C62.3335 61.667 64.3057 60.8614 65.9168 59.2503C67.5279 57.6392 68.3335 55.667 68.3335 53.3337C68.3335 51.0003 67.5279 49.0281 65.9168 47.417C64.3057 45.8059 62.3335 45.0003 60.0002 45.0003C57.6668 45.0003 55.6946 45.8059 54.0835 47.417C52.4724 49.0281 51.6668 51.0003 51.6668 53.3337C51.6668 55.667 52.4724 57.6392 54.0835 59.2503C55.6946 60.8614 57.6668 61.667 60.0002 61.667ZM40.0002 73.3337C32.2779 71.3892 25.9024 66.9581 20.8735 60.0403C15.8446 53.1225 13.3313 45.4426 13.3335 37.0003V16.667L40.0002 6.66699L66.6668 16.667V26.667H48.1668L45.5002 37.2503C43.2224 39.3059 41.4579 41.7225 40.2068 44.5003C38.9557 47.2781 38.3313 50.2225 38.3335 53.3337C38.3335 56.7781 39.0979 60.0148 40.6268 63.0437C42.1557 66.0726 44.2802 68.6137 47.0002 70.667C45.8891 71.2781 44.7502 71.8059 43.5835 72.2503C42.4168 72.6948 41.2224 73.0559 40.0002 73.3337Z" fill="white"/>
</g>
</svg>
