<svg width="21" height="18" viewBox="0 0 21 18" fill="none" xmlns="http://www.w3.org/2000/svg">
<path id="Vector - 0" fill-rule="evenodd" clip-rule="evenodd" d="M20.1918 2.71313C20.0758 2.43285 19.8024 2.25006 19.499 2.25H16.6462C15.8349 0.869721 14.3594 0.0157912 12.7584 0C11.5738 -0.0155382 10.433 0.44754 9.59434 1.28438C8.73122 2.13138 8.24619 3.29071 8.24902 4.5V5.07094C4.47465 4.07531 1.38746 1.005 1.35465 0.972188C1.14921 0.76493 0.842206 0.695655 0.567672 0.794608C0.293138 0.893561 0.100928 1.14277 0.0749609 1.43344C-0.329102 5.91375 0.972148 8.91187 2.13746 10.6378C2.70566 11.491 3.39688 12.2555 4.18871 12.9066C2.7609 14.55 0.512774 15.4134 0.488399 15.4228C0.273999 15.5031 0.108019 15.6769 0.0377057 15.8948C-0.0326076 16.1127 0.000447273 16.3508 0.127461 16.5413C0.197773 16.6462 0.479024 17.0147 1.16621 17.3587C2.01559 17.7844 3.13777 18 4.49902 18C11.1243 18 16.6603 12.8981 17.2256 6.33375L20.0296 3.53062C20.2441 3.31601 20.3081 2.99335 20.1918 2.71313ZM15.9731 5.47031C15.8445 5.59921 15.7672 5.77049 15.7556 5.95219C15.374 11.8669 10.4315 16.5 4.49902 16.5C3.50902 16.5 2.81152 16.3687 2.32215 16.2113C3.40121 15.6253 4.9059 14.6175 5.8734 13.1663C5.98817 12.9938 6.02649 12.7815 5.97925 12.5798C5.93202 12.378 5.80344 12.2048 5.62402 12.1012C5.57996 12.0759 1.50746 9.63188 1.49902 3.10125C2.99902 4.32 5.74121 6.21094 8.87434 6.73781C9.09167 6.77446 9.31413 6.71364 9.4826 6.57154C9.65107 6.42943 9.74851 6.2204 9.74902 6V4.5C9.74732 3.69176 10.0718 2.91702 10.649 2.35125C11.2024 1.79686 11.9564 1.48983 12.7396 1.5C13.9265 1.515 15.0356 2.23875 15.4996 3.30094C15.6192 3.57382 15.8889 3.75008 16.1868 3.75H17.6868L15.9731 5.47031Z" fill="#5B84C5"/>
</svg>
