<svg width="50" height="47" viewBox="0 0 50 47" fill="none" xmlns="http://www.w3.org/2000/svg">
<g id="Group">
<path id="Vector" d="M23.5 41H6C4.67392 41 3.40215 40.4732 2.46447 39.5355C1.52678 38.5979 1 37.3261 1 36V13.5C1 12.1739 1.52678 10.9021 2.46447 9.96447C3.40215 9.02678 4.67392 8.5 6 8.5H8.5C9.82608 8.5 11.0979 7.97322 12.0355 7.03553C12.9732 6.09785 13.5 4.82608 13.5 3.5C13.5 2.83696 13.7634 2.20107 14.2322 1.73223C14.7011 1.26339 15.337 1 16 1H31C31.663 1 32.2989 1.26339 32.7678 1.73223C33.2366 2.20107 33.5 2.83696 33.5 3.5C33.5 4.82608 34.0268 6.09785 34.9645 7.03553C35.9021 7.97322 37.1739 8.5 38.5 8.5H41C42.3261 8.5 43.5979 9.02678 44.5355 9.96447C45.4732 10.9021 46 12.1739 46 13.5V22.25M33.5 38.5H48.5M41 31V46" stroke="white" stroke-width="2" stroke-linecap="round" stroke-linejoin="round"/>
<path id="Vector_2" d="M16 23.5C16 25.4891 16.7902 27.3968 18.1967 28.8033C19.6032 30.2098 21.5109 31 23.5 31C25.4891 31 27.3968 30.2098 28.8033 28.8033C30.2098 27.3968 31 25.4891 31 23.5C31 21.5109 30.2098 19.6032 28.8033 18.1967C27.3968 16.7902 25.4891 16 23.5 16C21.5109 16 19.6032 16.7902 18.1967 18.1967C16.7902 19.6032 16 21.5109 16 23.5Z" stroke="white" stroke-width="2" stroke-linecap="round" stroke-linejoin="round"/>
</g>
</svg>
