<svg width="80" height="80" viewBox="0 0 80 80" fill="none" xmlns="http://www.w3.org/2000/svg">
<g id="&#229;&#147;&#129;&#231;&#137;&#140;icon">
<path id="Vector" d="M53.3333 73.3337L51.4166 65.667C49.4166 64.2226 47.8478 62.4314 46.71 60.2937C45.5722 58.1559 45.0022 55.8359 45 53.3337C44.9978 50.8314 45.5678 48.5126 46.71 46.377C47.8522 44.2414 49.4211 42.4492 51.4166 41.0003L53.3333 33.3337H66.6666L68.5833 41.0003C70.5833 42.4448 72.1533 44.237 73.2933 46.377C74.4333 48.517 75.0022 50.8359 75 53.3337C74.9978 55.8314 74.4278 58.1514 73.29 60.2937C72.1522 62.4359 70.5833 64.227 68.5833 65.667L66.6666 73.3337H53.3333ZM60 61.667C62.3333 61.667 64.3055 60.8614 65.9166 59.2503C67.5278 57.6392 68.3333 55.667 68.3333 53.3337C68.3333 51.0003 67.5278 49.0281 65.9166 47.417C64.3055 45.8059 62.3333 45.0003 60 45.0003C57.6666 45.0003 55.6944 45.8059 54.0833 47.417C52.4722 49.0281 51.6666 51.0003 51.6666 53.3337C51.6666 55.667 52.4722 57.6392 54.0833 59.2503C55.6944 60.8614 57.6666 61.667 60 61.667ZM40 73.3337C32.2778 71.3892 25.9022 66.9581 20.8733 60.0403C15.8444 53.1225 13.3311 45.4426 13.3333 37.0003V16.667L40 6.66699L66.6666 16.667V26.667H48.1666L45.5 37.2503C43.2222 39.3059 41.4578 41.7225 40.2066 44.5003C38.9555 47.2781 38.3311 50.2225 38.3333 53.3337C38.3333 56.7781 39.0978 60.0148 40.6266 63.0437C42.1555 66.0726 44.28 68.6137 47 70.667C45.8889 71.2781 44.75 71.8059 43.5833 72.2503C42.4166 72.6948 41.2222 73.0559 40 73.3337Z" fill="white"/>
</g>
</svg>
