<svg width="24" height="24" viewBox="0 0 24 24" fill="none" xmlns="http://www.w3.org/2000/svg">
<g id="&#230;&#148;&#182;&#232;&#151;&#143;icon" clip-path="url(#clip0_0_92)">
<path id="Vector" d="M16.4295 2.7497C16.4683 2.7497 16.5066 2.74067 16.5413 2.72331C16.576 2.70595 16.6062 2.68075 16.6295 2.6497C16.6465 2.61373 16.6552 2.57446 16.6552 2.5347C16.6552 2.49494 16.6465 2.45568 16.6295 2.4197L15.9995 0.339703C15.9647 0.236213 15.897 0.146954 15.8067 0.0855605C15.7165 0.0241666 15.6086 -0.0059876 15.4995 -0.000296584H8.49953C8.3905 -0.0059876 8.2826 0.0241666 8.19231 0.0855605C8.10203 0.146954 8.03432 0.236213 7.99953 0.339703L7.29953 2.4197C7.2826 2.45568 7.27382 2.49494 7.27382 2.5347C7.27382 2.57446 7.2826 2.61373 7.29953 2.6497C7.32282 2.68075 7.35301 2.70595 7.38773 2.72331C7.42244 2.74067 7.46072 2.7497 7.49953 2.7497H16.4295ZM7.56953 21.2497C7.53072 21.2497 7.49244 21.2587 7.45773 21.2761C7.42301 21.2935 7.39282 21.3187 7.36953 21.3497C7.3526 21.3857 7.34382 21.4249 7.34382 21.4647C7.34382 21.5045 7.3526 21.5437 7.36953 21.5797L7.99953 23.6597C8.03432 23.7632 8.10203 23.8525 8.19231 23.9138C8.2826 23.9752 8.3905 24.0054 8.49953 23.9997H15.4995C15.6035 23.9989 15.7046 23.9658 15.7889 23.9048C15.8731 23.8439 15.9363 23.7582 15.9695 23.6597L16.6695 21.5797C16.6865 21.5437 16.6952 21.5045 16.6952 21.4647C16.6952 21.4249 16.6865 21.3857 16.6695 21.3497C16.6462 21.3187 16.616 21.2935 16.5813 21.2761C16.5466 21.2587 16.5083 21.2497 16.4695 21.2497H7.56953ZM17.4995 3.9997H6.49953C5.83649 3.9997 5.20061 4.2631 4.73177 4.73194C4.26292 5.20078 3.99953 5.83666 3.99953 6.4997V17.4997C3.98774 18.0846 4.18142 18.6551 4.54685 19.1118C4.91229 19.5686 5.42634 19.8828 5.99953 19.9997L17.4995 20.0497C17.8321 20.0498 18.1613 19.9835 18.4679 19.8547C18.7746 19.726 19.0524 19.5374 19.2852 19.2999C19.518 19.0624 19.7011 18.7809 19.8238 18.4718C19.9464 18.1627 20.0062 17.8322 19.9995 17.4997V6.4997C19.9995 5.83666 19.7361 5.20078 19.2673 4.73194C18.7985 4.2631 18.1626 3.9997 17.4995 3.9997ZM15.9995 12.6797L11.9995 16.8097C11.9517 16.8581 11.8875 16.8867 11.8195 16.8897C11.7855 16.8905 11.7517 16.8838 11.7205 16.8699C11.6894 16.8561 11.6617 16.8355 11.6395 16.8097L7.63953 12.6797C7.39226 12.4572 7.19287 12.1868 7.05352 11.8847C6.91417 11.5827 6.83778 11.2555 6.82901 10.923C6.82023 10.5905 6.87925 10.2596 7.00248 9.95069C7.1257 9.64174 7.31054 9.36111 7.54574 9.12591C7.78094 8.89072 8.06157 8.70587 8.37052 8.58265C8.67948 8.45942 9.01029 8.4004 9.34279 8.40918C9.6753 8.41795 10.0025 8.49434 10.3046 8.63369C10.6066 8.77304 10.8771 8.97243 11.0995 9.2197L11.5995 9.7197C11.6474 9.76327 11.7098 9.78741 11.7745 9.78741C11.8393 9.78741 11.9017 9.76327 11.9495 9.7197L12.4495 9.2197C12.6767 8.98661 12.9476 8.80054 13.2467 8.67213C13.5458 8.54372 13.8672 8.47547 14.1927 8.47129C14.5182 8.46712 14.8413 8.52708 15.1436 8.64777C15.4459 8.76847 15.7214 8.94752 15.9545 9.1747C16.1876 9.40189 16.3737 9.67276 16.5021 9.97186C16.6305 10.271 16.6988 10.5924 16.7029 10.9179C16.7071 11.2434 16.6472 11.5665 16.5265 11.8688C16.4058 12.171 16.2267 12.4466 15.9995 12.6797Z" fill="white"/>
</g>
<defs>
<clipPath id="clip0_0_92">
<rect width="24" height="24" fill="white"/>
</clipPath>
</defs>
</svg>
