<svg width="80" height="80" viewBox="0 0 80 80" fill="none" xmlns="http://www.w3.org/2000/svg">
<path d="M53.3333 73.3332L51.4166 65.6665C49.4166 64.2221 47.8478 62.431 46.71 60.2932C45.5722 58.1554 45.0022 55.8354 45 53.3332C44.9978 50.831 45.5678 48.5121 46.71 46.3765C47.8522 44.241 49.4211 42.4487 51.4166 40.9998L53.3333 33.3332H66.6666L68.5833 40.9998C70.5833 42.4443 72.1533 44.2365 73.2933 46.3765C74.4333 48.5165 75.0022 50.8354 75 53.3332C74.9978 55.831 74.4278 58.1509 73.29 60.2932C72.1522 62.4354 70.5833 64.2265 68.5833 65.6665L66.6666 73.3332H53.3333ZM60 61.6665C62.3333 61.6665 64.3055 60.861 65.9166 59.2498C67.5278 57.6387 68.3333 55.6665 68.3333 53.3332C68.3333 50.9998 67.5278 49.0276 65.9166 47.4165C64.3055 45.8054 62.3333 44.9998 60 44.9998C57.6666 44.9998 55.6944 45.8054 54.0833 47.4165C52.4722 49.0276 51.6666 50.9998 51.6666 53.3332C51.6666 55.6665 52.4722 57.6387 54.0833 59.2498C55.6944 60.861 57.6666 61.6665 60 61.6665ZM40 73.3332C32.2778 71.3887 25.9022 66.9576 20.8733 60.0398C15.8444 53.1221 13.3311 45.4421 13.3333 36.9998V16.6665L40 6.6665L66.6666 16.6665V26.6665H48.1666L45.5 37.2498C43.2222 39.3054 41.4578 41.7221 40.2066 44.4998C38.9555 47.2776 38.3311 50.2221 38.3333 53.3332C38.3333 56.7776 39.0978 60.0143 40.6266 63.0432C42.1555 66.0721 44.28 68.6132 47 70.6665C45.8889 71.2776 44.75 71.8054 43.5833 72.2498C42.4166 72.6943 41.2222 73.0554 40 73.3332Z" fill="white"/>
</svg>
