<svg width="24" height="24" viewBox="0 0 24 24" fill="none" xmlns="http://www.w3.org/2000/svg">
<g clip-path="url(#clip0_44_258)">
<path fill-rule="evenodd" clip-rule="evenodd" d="M23.1928 6.46313C23.0768 6.18285 22.8033 6.00006 22.5 6H19.6472C18.8359 4.61972 17.3604 3.76579 15.7594 3.75C14.5747 3.73446 13.4339 4.19754 12.5953 5.03438C11.7322 5.88138 11.2472 7.04071 11.25 8.25V8.82094C7.47563 7.82531 4.38844 4.755 4.35563 4.72219C4.15019 4.51493 3.84318 4.44566 3.56865 4.54461C3.29411 4.64356 3.1019 4.89277 3.07594 5.18344C2.67188 9.66375 3.97312 12.6619 5.13844 14.3878C5.70664 15.241 6.39786 16.0055 7.18969 16.6566C5.76188 18.3 3.51375 19.1634 3.48938 19.1728C3.27498 19.2531 3.109 19.4269 3.03868 19.6448C2.96837 19.8627 3.00142 20.1008 3.12844 20.2913C3.19875 20.3962 3.48 20.7647 4.16719 21.1087C5.01656 21.5344 6.13875 21.75 7.5 21.75C14.1253 21.75 19.6612 16.6481 20.2266 10.0837L23.0306 7.28062C23.2451 7.06601 23.3091 6.74335 23.1928 6.46313ZM18.9741 9.22031C18.8455 9.34921 18.7682 9.52049 18.7566 9.70219C18.375 15.6169 13.4325 20.25 7.5 20.25C6.51 20.25 5.8125 20.1187 5.32312 19.9613C6.40219 19.3753 7.90688 18.3675 8.87438 16.9163C8.98915 16.7438 9.02746 16.5315 8.98023 16.3298C8.93299 16.128 8.80442 15.9548 8.625 15.8512C8.58094 15.8259 4.50844 13.3819 4.5 6.85125C6 8.07 8.74219 9.96094 11.8753 10.4878C12.0927 10.5245 12.3151 10.4636 12.4836 10.3215C12.6521 10.1794 12.7495 9.9704 12.75 9.75V8.25C12.7483 7.44176 13.0728 6.66702 13.65 6.10125C14.2034 5.54686 14.9574 5.23983 15.7406 5.25C16.9275 5.265 18.0366 5.98875 18.5006 7.05094C18.6202 7.32382 18.8899 7.50008 19.1878 7.5H20.6878L18.9741 9.22031Z" fill="white"/>
</g>
<defs>
<clipPath id="clip0_44_258">
<rect width="24" height="24" fill="white"/>
</clipPath>
</defs>
</svg>
