<svg width="21" height="18" viewBox="0 0 21 18" fill="none" xmlns="http://www.w3.org/2000/svg">
<path fill-rule="evenodd" clip-rule="evenodd" d="M20.1915 2.71354C20.0755 2.43327 19.8021 2.25049 19.4987 2.25043H16.646C15.8347 0.870186 14.3592 0.016279 12.7583 0.000488268C11.5737 -0.0150495 10.4329 0.448016 9.59432 1.28483C8.73122 2.13181 8.24622 3.29111 8.24904 4.50037V5.07129C4.47477 4.07569 1.38767 1.00546 1.35486 0.972649C1.14942 0.765398 0.842427 0.696125 0.567901 0.795075C0.293374 0.894025 0.101169 1.14323 0.075203 1.43389C-0.328849 5.91408 0.972366 8.91212 2.13765 10.638C2.70583 11.4912 3.39704 12.2557 4.18884 12.9067C2.76107 14.5501 0.513004 15.4135 0.488629 15.4229C0.274235 15.5032 0.10826 15.677 0.0379488 15.8949C-0.0323625 16.1128 0.000691395 16.3508 0.127702 16.5413C0.198012 16.6463 0.479255 17.0147 1.16642 17.3588C2.01578 17.7844 3.13793 18 4.49915 18C11.1243 18 16.6601 12.8983 17.2254 6.33407L20.0293 3.53102C20.2438 3.31641 20.3078 2.99375 20.1915 2.71354ZM15.9729 5.47065C15.8443 5.59955 15.767 5.77082 15.7554 5.95251C15.3739 11.867 10.4315 16.5 4.49915 16.5C3.50917 16.5 2.81169 16.3688 2.32233 16.2113C3.40136 15.6254 4.90601 14.6176 5.87348 13.1664C5.98826 12.9939 6.02657 12.7816 5.97933 12.5799C5.9321 12.3782 5.80353 12.205 5.62412 12.1014C5.58005 12.0761 1.50766 9.6321 1.49923 3.10165C2.99919 4.32037 5.7413 6.21126 8.87434 6.73812C9.09167 6.77476 9.31412 6.71395 9.48259 6.57185C9.65106 6.42974 9.74849 6.22072 9.749 6.00033V4.50037C9.7473 3.69214 10.0718 2.91743 10.649 2.35167C11.2023 1.7973 11.9563 1.49028 12.7395 1.50045C13.9264 1.51545 15.0354 2.23918 15.4995 3.30134C15.619 3.57422 15.8887 3.75047 16.1866 3.75039H17.6866L15.9729 5.47065Z" fill="#5B84C5"/>
</svg>
