<svg width="80" height="80" viewBox="0 0 80 80" fill="none" xmlns="http://www.w3.org/2000/svg">
<g id="&#229;&#147;&#129;&#231;&#137;&#140;icon">
<path id="Vector" d="M53.3335 73.3334L51.4168 65.6668C49.4168 64.2223 47.8479 62.4312 46.7102 60.2934C45.5724 58.1556 45.0024 55.8356 45.0002 53.3334C44.9979 50.8312 45.5679 48.5123 46.7102 46.3768C47.8524 44.2412 49.4213 42.449 51.4168 41.0001L53.3335 33.3334H66.6668L68.5835 41.0001C70.5835 42.4445 72.1535 44.2368 73.2935 46.3768C74.4335 48.5168 75.0024 50.8356 75.0002 53.3334C74.9979 55.8312 74.4279 58.1512 73.2902 60.2934C72.1524 62.4356 70.5835 64.2268 68.5835 65.6668L66.6668 73.3334H53.3335ZM60.0002 61.6668C62.3335 61.6668 64.3057 60.8612 65.9168 59.2501C67.5279 57.639 68.3335 55.6668 68.3335 53.3334C68.3335 51.0001 67.5279 49.0279 65.9168 47.4168C64.3057 45.8056 62.3335 45.0001 60.0002 45.0001C57.6668 45.0001 55.6946 45.8056 54.0835 47.4168C52.4724 49.0279 51.6668 51.0001 51.6668 53.3334C51.6668 55.6668 52.4724 57.639 54.0835 59.2501C55.6946 60.8612 57.6668 61.6668 60.0002 61.6668ZM40.0002 73.3334C32.2779 71.389 25.9024 66.9579 20.8735 60.0401C15.8446 53.1223 13.3313 45.4423 13.3335 37.0001V16.6667L40.0002 6.66675L66.6668 16.6667V26.6667H48.1668L45.5002 37.2501C43.2224 39.3056 41.4579 41.7223 40.2068 44.5001C38.9557 47.2779 38.3313 50.2223 38.3335 53.3334C38.3335 56.7779 39.0979 60.0145 40.6268 63.0434C42.1557 66.0723 44.2802 68.6134 47.0002 70.6668C45.8891 71.2779 44.7502 71.8056 43.5835 72.2501C42.4168 72.6945 41.2224 73.0556 40.0002 73.3334Z" fill="white"/>
</g>
</svg>
