<svg width="21" height="15" viewBox="0 0 21 15" fill="none" xmlns="http://www.w3.org/2000/svg">
<path id="Vector - 0" fill-rule="evenodd" clip-rule="evenodd" d="M19.5 0H1.5C0.671573 0 0 0.671573 0 1.5V13.5C0 14.3284 0.671573 15 1.5 15H19.5C20.3284 15 21 14.3284 21 13.5V1.5C21 0.671573 20.3284 0 19.5 0ZM19.5 1.5V3.75H1.5V1.5H19.5ZM19.5 13.5H1.5V5.25H19.5V13.5ZM18 11.25C18 11.6642 17.6642 12 17.25 12H14.25C13.8358 12 13.5 11.6642 13.5 11.25C13.5 10.8358 13.8358 10.5 14.25 10.5H17.25C17.6642 10.5 18 10.8358 18 11.25ZM12 11.25C12 11.6642 11.6642 12 11.25 12H9.75C9.33579 12 9 11.6642 9 11.25C9 10.8358 9.33579 10.5 9.75 10.5H11.25C11.6642 10.5 12 10.8358 12 11.25Z" fill="#121417"/>
</svg>
