<svg width="21" height="18" viewBox="0 0 21 18" fill="none" xmlns="http://www.w3.org/2000/svg">
<path id="Vector - 0" fill-rule="evenodd" clip-rule="evenodd" d="M20.1913 2.71354C20.0753 2.43327 19.8018 2.25049 19.4985 2.25043H16.6458C15.8345 0.870186 14.359 0.016279 12.7581 0.000488268C11.5735 -0.0150495 10.4327 0.448016 9.59408 1.28483C8.73098 2.13181 8.24597 3.29111 8.2488 4.50037V5.07129C4.47453 4.07569 1.38742 1.00546 1.35461 0.972649C1.14918 0.765398 0.842183 0.696125 0.567656 0.795075C0.29313 0.894025 0.100925 1.14323 0.0749589 1.43389C-0.329093 5.91408 0.972122 8.91212 2.1374 10.638C2.70559 11.4912 3.39679 12.2557 4.1886 12.9067C2.76082 14.5501 0.51276 15.4135 0.488385 15.4229C0.273991 15.5032 0.108016 15.677 0.0377046 15.8949C-0.0326067 16.1128 0.000447261 16.3508 0.127457 16.5413C0.197768 16.6463 0.479011 17.0147 1.16618 17.3588C2.01553 17.7844 3.13769 18 4.4989 18C11.124 18 16.6598 12.8983 17.2251 6.33407L20.0291 3.53102C20.2435 3.31641 20.3075 2.99375 20.1913 2.71354ZM15.9727 5.47065C15.8441 5.59955 15.7668 5.77082 15.7552 5.95251C15.3736 11.867 10.4312 16.5 4.4989 16.5C3.50893 16.5 2.81145 16.3688 2.32209 16.2113C3.40112 15.6254 4.90577 14.6176 5.87324 13.1664C5.98801 12.9939 6.02632 12.7816 5.97909 12.5799C5.93186 12.3782 5.80329 12.205 5.62387 12.1014C5.57981 12.0761 1.50742 9.6321 1.49898 3.10165C2.99894 4.32037 5.74106 6.21126 8.8741 6.73812C9.09143 6.77476 9.31387 6.71395 9.48234 6.57185C9.65081 6.42974 9.74824 6.22072 9.74876 6.00033V4.50037C9.74706 3.69214 10.0715 2.91743 10.6487 2.35167C11.2021 1.7973 11.9561 1.49028 12.7393 1.50045C13.9261 1.51545 15.0352 2.23918 15.4992 3.30134C15.6188 3.57422 15.8885 3.75047 16.1864 3.75039H17.6864L15.9727 5.47065Z" fill="#5B84C5"/>
</svg>
