<svg width="24" height="24" viewBox="0 0 24 24" fill="none" xmlns="http://www.w3.org/2000/svg">
<g id="&#230;&#148;&#182;&#232;&#151;&#143;icon" clip-path="url(#clip0_847_9418)">
<path id="Vector" d="M16.43 2.7497C16.4688 2.7497 16.5071 2.74067 16.5418 2.72331C16.5765 2.70595 16.6067 2.68075 16.63 2.6497C16.647 2.61373 16.6557 2.57446 16.6557 2.5347C16.6557 2.49494 16.647 2.45568 16.63 2.4197L16 0.339703C15.9652 0.236213 15.8975 0.146954 15.8072 0.0855605C15.717 0.0241666 15.6091 -0.0059876 15.5 -0.000296584H8.50002C8.39099 -0.0059876 8.28309 0.0241666 8.1928 0.0855605C8.10252 0.146954 8.03481 0.236213 8.00002 0.339703L7.30002 2.4197C7.28309 2.45568 7.27431 2.49494 7.27431 2.5347C7.27431 2.57446 7.28309 2.61373 7.30002 2.6497C7.32331 2.68075 7.3535 2.70595 7.38822 2.72331C7.42293 2.74067 7.46121 2.7497 7.50002 2.7497H16.43ZM7.57002 21.2497C7.53121 21.2497 7.49293 21.2587 7.45822 21.2761C7.4235 21.2935 7.39331 21.3187 7.37002 21.3497C7.35309 21.3857 7.3443 21.4249 7.3443 21.4647C7.3443 21.5045 7.35309 21.5437 7.37002 21.5797L8.00002 23.6597C8.03481 23.7632 8.10252 23.8525 8.1928 23.9138C8.28309 23.9752 8.39099 24.0054 8.50002 23.9997H15.5C15.604 23.9989 15.7051 23.9658 15.7894 23.9048C15.8736 23.8439 15.9368 23.7582 15.97 23.6597L16.67 21.5797C16.687 21.5437 16.6957 21.5045 16.6957 21.4647C16.6957 21.4249 16.687 21.3857 16.67 21.3497C16.6467 21.3187 16.6165 21.2935 16.5818 21.2761C16.5471 21.2587 16.5088 21.2497 16.47 21.2497H7.57002ZM17.5 3.9997H6.50002C5.83698 3.9997 5.20109 4.2631 4.73225 4.73194C4.26341 5.20078 4.00002 5.83666 4.00002 6.4997V17.4997C3.98823 18.0846 4.1819 18.6551 4.54734 19.1118C4.91278 19.5686 5.42683 19.8828 6.00002 19.9997L17.5 20.0497C17.8326 20.0498 18.1618 19.9835 18.4684 19.8547C18.775 19.726 19.0529 19.5374 19.2857 19.2999C19.5185 19.0624 19.7016 18.7809 19.8243 18.4718C19.9469 18.1627 20.0067 17.8322 20 17.4997V6.4997C20 5.83666 19.7366 5.20078 19.2678 4.73194C18.7989 4.2631 18.1631 3.9997 17.5 3.9997ZM16 12.6797L12 16.8097C11.9522 16.8581 11.888 16.8867 11.82 16.8897C11.786 16.8905 11.7522 16.8838 11.721 16.8699C11.6899 16.8561 11.6622 16.8355 11.64 16.8097L7.64002 12.6797C7.39274 12.4572 7.19336 12.1868 7.05401 11.8847C6.91466 11.5827 6.83827 11.2555 6.82949 10.923C6.82072 10.5905 6.87974 10.2596 7.00297 9.95069C7.12619 9.64174 7.31103 9.36111 7.54623 9.12591C7.78143 8.89072 8.06206 8.70587 8.37101 8.58265C8.67996 8.45942 9.01077 8.4004 9.34328 8.40918C9.67578 8.41795 10.003 8.49434 10.305 8.63369C10.6071 8.77304 10.8776 8.97243 11.1 9.2197L11.6 9.7197C11.6479 9.76327 11.7103 9.78741 11.775 9.78741C11.8397 9.78741 11.9021 9.76327 11.95 9.7197L12.45 9.2197C12.6772 8.98661 12.9481 8.80054 13.2472 8.67213C13.5463 8.54372 13.8677 8.47547 14.1932 8.47129C14.5187 8.46712 14.8418 8.52708 15.1441 8.64777C15.4464 8.76847 15.7219 8.94752 15.955 9.1747C16.1881 9.40189 16.3742 9.67276 16.5026 9.97186C16.631 10.271 16.6993 10.5924 16.7034 10.9179C16.7076 11.2434 16.6476 11.5665 16.5269 11.8688C16.4063 12.171 16.2272 12.4466 16 12.6797Z" fill="white"/>
</g>
<defs>
<clipPath id="clip0_847_9418">
<rect width="24" height="24" fill="white"/>
</clipPath>
</defs>
</svg>
