<svg width="20" height="20" viewBox="0 0 20 20" fill="none" xmlns="http://www.w3.org/2000/svg">
<path id="Vector-0_7" fill-rule="evenodd" clip-rule="evenodd" d="M10 0C4.47715 0 0 4.47715 0 10C0 15.5228 4.47715 20 10 20C15.5228 20 20 15.5228 20 10C19.9942 4.47957 15.5204 0.00582964 10 0ZM10 18.4615C5.32682 18.4615 1.53846 14.6732 1.53846 10C1.53846 5.32682 5.32682 1.53846 10 1.53846C14.6732 1.53846 18.4615 5.32682 18.4615 10C18.4562 14.671 14.671 18.4562 10 18.4615ZM16.1538 10C16.1538 10.4248 15.8094 10.7692 15.3846 10.7692H10C9.57517 10.7692 9.23077 10.4248 9.23077 10V4.61538C9.23077 4.19055 9.57517 3.84615 10 3.84615C10.4248 3.84615 10.7692 4.19055 10.7692 4.61538V9.23077H15.3846C15.8094 9.23077 16.1538 9.57517 16.1538 10Z" fill="white"/>
</svg>
