<svg width="18" height="19" viewBox="0 0 18 19" fill="none" xmlns="http://www.w3.org/2000/svg">
<path id="Vector-0_6" fill-rule="evenodd" clip-rule="evenodd" d="M16.5 0H1.5C0.671573 0 0 0.671573 0 1.5V7.01062C0 15.4116 7.10812 18.1987 8.53125 18.6722C8.8352 18.7756 9.1648 18.7756 9.46875 18.6722C10.8938 18.1987 18 15.4116 18 7.01062V1.5C18 0.671573 17.3284 0 16.5 0ZM16.5 7.01156C16.5 14.3634 10.2797 16.8197 9 17.2472C7.73156 16.8244 1.5 14.37 1.5 7.01156V1.5H16.5V7.01156ZM4.71938 9.53063C4.42632 9.23757 4.42632 8.76243 4.71938 8.46937C5.01243 8.17632 5.48757 8.17632 5.78063 8.46937L7.5 10.1888L12.2194 5.46937C12.5124 5.17632 12.9876 5.17632 13.2806 5.46937C13.5737 5.76243 13.5737 6.23757 13.2806 6.53063L8.03063 11.7806C7.88995 11.9215 7.69906 12.0006 7.5 12.0006C7.30094 12.0006 7.11005 11.9215 6.96937 11.7806L4.71938 9.53063Z" fill="white"/>
</svg>
