<svg width="20" height="20" viewBox="0 0 20 20" fill="none" xmlns="http://www.w3.org/2000/svg">
<path id="Vector-0_4" fill-rule="evenodd" clip-rule="evenodd" d="M19.7747 18.6872L14.9656 13.879C17.8612 10.4026 17.5104 5.26344 14.1691 2.21283C10.8278 -0.837784 5.67801 -0.720747 2.47876 2.47851C-0.720497 5.67776 -0.837534 10.8275 2.21308 14.1688C5.26369 17.5101 10.4028 17.861 13.8792 14.9653L18.6875 19.7745C18.9877 20.0747 19.4745 20.0747 19.7747 19.7745C20.075 19.4743 20.075 18.9875 19.7747 18.6872ZM1.55805 8.47334C1.55805 4.65399 4.65424 1.5578 8.47359 1.5578C12.2929 1.5578 15.3891 4.65399 15.3891 8.47334C15.3891 12.2927 12.2929 15.3889 8.47359 15.3889C4.656 15.3847 1.56228 12.2909 1.55805 8.47334Z" fill="white"/>
</svg>
