<svg width="35" height="25" viewBox="0 0 35 25" fill="none" xmlns="http://www.w3.org/2000/svg">
<g id="Group_4">
<path id="Vector_12" d="M25.4546 12.4762H8.70816M8.70816 12.4762L13.3134 17.0815M8.70816 12.4762L13.3134 7.87098" stroke="white" stroke-width="1.5" stroke-linecap="round" stroke-linejoin="round"/>
<path id="Vector_13" d="M0.753589 17.5V7.45216C0.753589 5.67559 1.45933 3.97178 2.71555 2.71555C3.97178 1.45933 5.67559 0.753589 7.45216 0.753589H27.5479C29.3244 0.753589 31.0282 1.45933 32.2845 2.71555C33.5407 3.97178 34.2464 5.67559 34.2464 7.45216V17.5C34.2464 19.2766 33.5407 20.9804 32.2845 22.2366C31.0282 23.4928 29.3244 24.1986 27.5479 24.1986H7.45216C5.67559 24.1986 3.97178 23.4928 2.71555 22.2366C1.45933 20.9804 0.753589 19.2766 0.753589 17.5Z" stroke="white" stroke-width="1.5"/>
</g>
</svg>
