<svg width="32" height="23" viewBox="0 0 32 23" fill="none" xmlns="http://www.w3.org/2000/svg">
<g id="Group_2">
<path id="Vector_8" d="M23.2381 11.4286H8M8 11.4286L12.1905 15.619M8 11.4286L12.1905 7.2381" stroke="white" stroke-width="1.5" stroke-linecap="round" stroke-linejoin="round"/>
<path id="Vector_9" d="M0.761905 16V6.85714C0.761905 5.24059 1.40408 3.69024 2.54716 2.54716C3.69024 1.40408 5.24059 0.761905 6.85714 0.761905H25.1429C26.7594 0.761905 28.3098 1.40408 29.4528 2.54716C30.5959 3.69024 31.2381 5.24059 31.2381 6.85714V16C31.2381 17.6166 30.5959 19.1669 29.4528 20.31C28.3098 21.4531 26.7594 22.0952 25.1429 22.0952H6.85714C5.24059 22.0952 3.69024 21.4531 2.54716 20.31C1.40408 19.1669 0.761905 17.6166 0.761905 16Z" stroke="white" stroke-width="1.5"/>
</g>
</svg>
