<svg width="80" height="80" viewBox="0 0 80 80" fill="none" xmlns="http://www.w3.org/2000/svg">
<g id="&#229;&#147;&#129;&#231;&#137;&#140;icon">
<path id="Vector" d="M53.3333 73.3334L51.4166 65.6668C49.4166 64.2223 47.8477 62.4312 46.7099 60.2934C45.5721 58.1556 45.0021 55.8356 44.9999 53.3334C44.9977 50.8312 45.5677 48.5123 46.7099 46.3768C47.8521 44.2412 49.421 42.449 51.4166 41.0001L53.3333 33.3334H66.6666L68.5833 41.0001C70.5833 42.4445 72.1533 44.2368 73.2933 46.3768C74.4333 48.5168 75.0021 50.8356 74.9999 53.3334C74.9977 55.8312 74.4277 58.1512 73.2899 60.2934C72.1521 62.4356 70.5833 64.2268 68.5833 65.6668L66.6666 73.3334H53.3333ZM59.9999 61.6668C62.3333 61.6668 64.3055 60.8612 65.9166 59.2501C67.5277 57.639 68.3333 55.6668 68.3333 53.3334C68.3333 51.0001 67.5277 49.0279 65.9166 47.4168C64.3055 45.8056 62.3333 45.0001 59.9999 45.0001C57.6666 45.0001 55.6944 45.8056 54.0833 47.4168C52.4721 49.0279 51.6666 51.0001 51.6666 53.3334C51.6666 55.6668 52.4721 57.639 54.0833 59.2501C55.6944 60.8612 57.6666 61.6668 59.9999 61.6668ZM39.9999 73.3334C32.2777 71.389 25.9021 66.9579 20.8733 60.0401C15.8444 53.1223 13.331 45.4423 13.3333 37.0001V16.6667L39.9999 6.66675L66.6666 16.6667V26.6667H48.1666L45.4999 37.2501C43.2221 39.3056 41.4577 41.7223 40.2066 44.5001C38.9555 47.2779 38.331 50.2223 38.3333 53.3334C38.3333 56.7779 39.0977 60.0145 40.6266 63.0434C42.1555 66.0723 44.2799 68.6134 46.9999 70.6668C45.8888 71.2779 44.7499 71.8056 43.5833 72.2501C42.4166 72.6945 41.2221 73.0556 39.9999 73.3334Z" fill="white"/>
</g>
</svg>
