<svg width="21" height="18" viewBox="0 0 21 18" fill="none" xmlns="http://www.w3.org/2000/svg">
<path id="Vector - 0" fill-rule="evenodd" clip-rule="evenodd" d="M20.1921 2.71313C20.076 2.43285 19.8026 2.25006 19.4993 2.25H16.6465C15.8351 0.869721 14.3596 0.0157912 12.7586 0C11.574 -0.0155382 10.4332 0.44754 9.59458 1.28438C8.73146 2.13138 8.24644 3.29071 8.24927 4.5V5.07094C4.47489 4.07531 1.38771 1.005 1.35489 0.972188C1.14945 0.76493 0.84245 0.695655 0.567916 0.794608C0.293382 0.893561 0.101172 1.14277 0.0752051 1.43344C-0.328857 5.91375 0.972392 8.91187 2.1377 10.6378C2.7059 11.491 3.39713 12.2555 4.18896 12.9066C2.76114 14.55 0.513018 15.4134 0.488643 15.4228C0.274243 15.5031 0.108263 15.6769 0.0379498 15.8948C-0.0323634 16.1127 0.000691414 16.3508 0.127705 16.5413C0.198018 16.6462 0.479268 17.0147 1.16646 17.3587C2.01583 17.7844 3.13802 18 4.49927 18C11.1246 18 16.6605 12.8981 17.2258 6.33375L20.0299 3.53062C20.2443 3.31601 20.3083 2.99335 20.1921 2.71313ZM15.9733 5.47031C15.8447 5.59921 15.7674 5.77049 15.7558 5.95219C15.3743 11.8669 10.4318 16.5 4.49927 16.5C3.50927 16.5 2.81177 16.3687 2.32239 16.2113C3.40145 15.6253 4.90614 14.6175 5.87364 13.1663C5.98842 12.9938 6.02673 12.7815 5.9795 12.5798C5.93226 12.378 5.80369 12.2048 5.62427 12.1012C5.5802 12.0759 1.50771 9.63188 1.49927 3.10125C2.99927 4.32 5.74146 6.21094 8.87458 6.73781C9.09192 6.77446 9.31437 6.71364 9.48284 6.57154C9.65132 6.42943 9.74875 6.2204 9.74927 6V4.5C9.74757 3.69176 10.0721 2.91702 10.6493 2.35125C11.2026 1.79686 11.9567 1.48983 12.7399 1.5C13.9268 1.515 15.0358 2.23875 15.4999 3.30094C15.6194 3.57382 15.8892 3.75008 16.1871 3.75H17.6871L15.9733 5.47031Z" fill="#5B84C5"/>
</svg>
