<svg width="24" height="24" viewBox="0 0 24 24" fill="none" xmlns="http://www.w3.org/2000/svg">
<path d="M16 22L15.425 19.7C14.825 19.2667 14.3543 18.7293 14.013 18.088C13.6717 17.4467 13.5007 16.7507 13.5 16C13.4993 15.2493 13.6703 14.5537 14.013 13.913C14.3557 13.2723 14.8263 12.7347 15.425 12.3L16 10H20L20.575 12.3C21.175 12.7333 21.646 13.271 21.988 13.913C22.33 14.555 22.5007 15.2507 22.5 16C22.4993 16.7493 22.3283 17.4453 21.987 18.088C21.6457 18.7307 21.175 19.268 20.575 19.7L20 22H16ZM18 18.5C18.7 18.5 19.2917 18.2583 19.775 17.775C20.2583 17.2917 20.5 16.7 20.5 16C20.5 15.3 20.2583 14.7083 19.775 14.225C19.2917 13.7417 18.7 13.5 18 13.5C17.3 13.5 16.7083 13.7417 16.225 14.225C15.7417 14.7083 15.5 15.3 15.5 16C15.5 16.7 15.7417 17.2917 16.225 17.775C16.7083 18.2583 17.3 18.5 18 18.5ZM12 22C9.68333 21.4167 7.77067 20.0873 6.262 18.012C4.75333 15.9367 3.99933 13.6327 4 11.1V5L12 2L20 5V8H14.45L13.65 11.175C12.9667 11.7917 12.4373 12.5167 12.062 13.35C11.6867 14.1833 11.4993 15.0667 11.5 16C11.5 17.0333 11.7293 18.0043 12.188 18.913C12.6467 19.8217 13.284 20.584 14.1 21.2C13.7667 21.3833 13.425 21.5417 13.075 21.675C12.725 21.8083 12.3667 21.9167 12 22Z" fill="white"/>
</svg>
