<svg width="24" height="24" viewBox="0 0 24 24" fill="none" xmlns="http://www.w3.org/2000/svg">
<g id="&#230;&#148;&#182;&#232;&#151;&#143;icon" clip-path="url(#clip0_0_223)">
<path id="Vector" d="M16.43 2.74995C16.4688 2.74995 16.5071 2.74091 16.5418 2.72355C16.5765 2.7062 16.6067 2.681 16.63 2.64995C16.647 2.61398 16.6557 2.57471 16.6557 2.53495C16.6557 2.49519 16.647 2.45592 16.63 2.41995L16 0.339948C15.9652 0.236457 15.8975 0.147198 15.8072 0.0858046C15.717 0.0244108 15.6091 -0.00574346 15.5 -5.24431e-05H8.50002C8.39099 -0.00574346 8.28309 0.0244108 8.1928 0.0858046C8.10252 0.147198 8.03481 0.236457 8.00002 0.339948L7.30002 2.41995C7.28309 2.45592 7.27431 2.49519 7.27431 2.53495C7.27431 2.57471 7.28309 2.61398 7.30002 2.64995C7.32331 2.681 7.3535 2.7062 7.38822 2.72355C7.42293 2.74091 7.46121 2.74995 7.50002 2.74995H16.43ZM7.57002 21.2499C7.53121 21.2499 7.49293 21.259 7.45822 21.2763C7.4235 21.2937 7.39331 21.3189 7.37002 21.3499C7.35309 21.3859 7.3443 21.4252 7.3443 21.4649C7.3443 21.5047 7.35309 21.544 7.37002 21.5799L8.00002 23.6599C8.03481 23.7634 8.10252 23.8527 8.1928 23.9141C8.28309 23.9755 8.39099 24.0056 8.50002 23.9999H15.5C15.604 23.9992 15.7051 23.966 15.7894 23.9051C15.8736 23.8441 15.9368 23.7585 15.97 23.6599L16.67 21.5799C16.687 21.544 16.6957 21.5047 16.6957 21.4649C16.6957 21.4252 16.687 21.3859 16.67 21.3499C16.6467 21.3189 16.6165 21.2937 16.5818 21.2763C16.5471 21.259 16.5088 21.2499 16.47 21.2499H7.57002ZM17.5 3.99995H6.50002C5.83698 3.99995 5.20109 4.26334 4.73225 4.73218C4.26341 5.20102 4.00002 5.83691 4.00002 6.49995V17.4999C3.98823 18.0848 4.1819 18.6553 4.54734 19.1121C4.91278 19.5689 5.42683 19.8831 6.00002 19.9999L17.5 20.0499C17.8326 20.05 18.1618 19.9837 18.4684 19.855C18.775 19.7262 19.0529 19.5376 19.2857 19.3001C19.5185 19.0627 19.7016 18.7811 19.8243 18.472C19.9469 18.1629 20.0067 17.8324 20 17.4999V6.49995C20 5.83691 19.7366 5.20102 19.2678 4.73218C18.7989 4.26334 18.1631 3.99995 17.5 3.99995ZM16 12.6799L12 16.8099C11.9522 16.8583 11.888 16.8869 11.82 16.8899C11.786 16.8908 11.7522 16.884 11.721 16.8702C11.6899 16.8564 11.6622 16.8358 11.64 16.8099L7.64002 12.6799C7.39274 12.4575 7.19336 12.187 7.05401 11.885C6.91466 11.5829 6.83827 11.2557 6.82949 10.9232C6.82072 10.5907 6.87974 10.2599 7.00297 9.95094C7.12619 9.64198 7.31103 9.36136 7.54623 9.12616C7.78143 8.89096 8.06206 8.70612 8.37101 8.58289C8.67996 8.45967 9.01077 8.40065 9.34328 8.40942C9.67578 8.4182 10.003 8.49459 10.305 8.63393C10.6071 8.77328 10.8776 8.97267 11.1 9.21995L11.6 9.71995C11.6479 9.76351 11.7103 9.78766 11.775 9.78766C11.8397 9.78766 11.9021 9.76351 11.95 9.71995L12.45 9.21995C12.6772 8.98685 12.9481 8.80079 13.2472 8.67237C13.5463 8.54396 13.8677 8.47572 14.1932 8.47154C14.5187 8.46736 14.8418 8.52733 15.1441 8.64802C15.4464 8.76871 15.7219 8.94776 15.955 9.17495C16.1881 9.40213 16.3742 9.67301 16.5026 9.9721C16.631 10.2712 16.6993 10.5927 16.7034 10.9181C16.7076 11.2436 16.6476 11.5667 16.5269 11.869C16.4063 12.1713 16.2272 12.4469 16 12.6799Z" fill="white"/>
</g>
<defs>
<clipPath id="clip0_0_223">
<rect width="24" height="24" fill="white"/>
</clipPath>
</defs>
</svg>
