<svg width="80" height="80" viewBox="0 0 80 80" fill="none" xmlns="http://www.w3.org/2000/svg">
<g id="&#229;&#147;&#129;&#231;&#137;&#140;icon">
<path id="Vector" d="M53.3335 73.3332L51.4168 65.6665C49.4168 64.2221 47.8479 62.431 46.7102 60.2932C45.5724 58.1554 45.0024 55.8354 45.0002 53.3332C44.9979 50.831 45.5679 48.5121 46.7102 46.3765C47.8524 44.241 49.4213 42.4487 51.4168 40.9998L53.3335 33.3332H66.6668L68.5835 40.9998C70.5835 42.4443 72.1535 44.2365 73.2935 46.3765C74.4335 48.5165 75.0024 50.8354 75.0002 53.3332C74.9979 55.831 74.4279 58.1509 73.2902 60.2932C72.1524 62.4354 70.5835 64.2265 68.5835 65.6665L66.6668 73.3332H53.3335ZM60.0002 61.6665C62.3335 61.6665 64.3057 60.861 65.9168 59.2498C67.5279 57.6387 68.3335 55.6665 68.3335 53.3332C68.3335 50.9998 67.5279 49.0276 65.9168 47.4165C64.3057 45.8054 62.3335 44.9998 60.0002 44.9998C57.6668 44.9998 55.6946 45.8054 54.0835 47.4165C52.4724 49.0276 51.6668 50.9998 51.6668 53.3332C51.6668 55.6665 52.4724 57.6387 54.0835 59.2498C55.6946 60.861 57.6668 61.6665 60.0002 61.6665ZM40.0002 73.3332C32.2779 71.3887 25.9024 66.9576 20.8735 60.0398C15.8446 53.1221 13.3313 45.4421 13.3335 36.9998V16.6665L40.0002 6.6665L66.6668 16.6665V26.6665H48.1668L45.5002 37.2498C43.2224 39.3054 41.4579 41.7221 40.2068 44.4998C38.9557 47.2776 38.3313 50.2221 38.3335 53.3332C38.3335 56.7776 39.0979 60.0143 40.6268 63.0432C42.1557 66.0721 44.2802 68.6132 47.0002 70.6665C45.8891 71.2776 44.7502 71.8054 43.5835 72.2498C42.4168 72.6943 41.2224 73.0554 40.0002 73.3332Z" fill="white"/>
</g>
</svg>
