<svg width="20" height="19" viewBox="0 0 20 19" fill="none" xmlns="http://www.w3.org/2000/svg">
<g id="Group">
<path id="Vector" d="M5.88135 9V5C5.88135 3.93913 6.30277 2.92172 7.05292 2.17157C7.80307 1.42143 8.82048 1 9.88135 1C10.9422 1 11.9596 1.42143 12.7098 2.17157C13.4599 2.92172 13.8813 3.93913 13.8813 5V9" stroke="white" stroke-width="2" stroke-linecap="round"/>
<path id="Vector_2" d="M1.57546 9.668C1.72046 7.927 1.79346 7.057 2.36746 6.528C2.94146 5.999 3.81546 6 5.56246 6H14.2015C15.9475 6 16.8215 6 17.3955 6.528C17.9695 7.056 18.0425 7.927 18.1875 9.668L18.7015 15.834C18.7855 16.847 18.8275 17.354 18.5315 17.677C18.2335 18 17.7255 18 16.7075 18H3.05546C2.03846 18 1.52946 18 1.23246 17.677C0.935465 17.354 0.977464 16.847 1.06246 15.834L1.57546 9.668Z" stroke="white" stroke-width="2"/>
</g>
</svg>
