<svg width="80" height="80" viewBox="0 0 80 80" fill="none" xmlns="http://www.w3.org/2000/svg">
<g id="&#229;&#147;&#129;&#231;&#137;&#140;icon">
<path id="Vector" d="M53.333 73.3337L51.4163 65.667C49.4163 64.2226 47.8475 62.4314 46.7097 60.2937C45.5719 58.1559 45.0019 55.8359 44.9997 53.3337C44.9975 50.8314 45.5675 48.5126 46.7097 46.377C47.8519 44.2414 49.4208 42.4492 51.4163 41.0003L53.333 33.3337H66.6663L68.583 41.0003C70.583 42.4448 72.153 44.237 73.293 46.377C74.433 48.517 75.0019 50.8359 74.9997 53.3337C74.9975 55.8314 74.4275 58.1514 73.2897 60.2937C72.1519 62.4359 70.583 64.227 68.583 65.667L66.6663 73.3337H53.333ZM59.9997 61.667C62.333 61.667 64.3052 60.8614 65.9163 59.2503C67.5275 57.6392 68.333 55.667 68.333 53.3337C68.333 51.0003 67.5275 49.0281 65.9163 47.417C64.3052 45.8059 62.333 45.0003 59.9997 45.0003C57.6663 45.0003 55.6941 45.8059 54.083 47.417C52.4719 49.0281 51.6663 51.0003 51.6663 53.3337C51.6663 55.667 52.4719 57.6392 54.083 59.2503C55.6941 60.8614 57.6663 61.667 59.9997 61.667ZM39.9997 73.3337C32.2775 71.3892 25.9019 66.9581 20.873 60.0403C15.8441 53.1225 13.3308 45.4426 13.333 37.0003V16.667L39.9997 6.66699L66.6663 16.667V26.667H48.1663L45.4997 37.2503C43.2219 39.3059 41.4575 41.7225 40.2063 44.5003C38.9552 47.2781 38.3308 50.2225 38.333 53.3337C38.333 56.7781 39.0975 60.0148 40.6263 63.0437C42.1552 66.0726 44.2797 68.6137 46.9997 70.667C45.8886 71.2781 44.7497 71.8059 43.583 72.2503C42.4163 72.6948 41.2219 73.0559 39.9997 73.3337Z" fill="white"/>
</g>
</svg>
